%TF.GenerationSoftware,KiCad,Pcbnew,(6.0.2)*%
%TF.CreationDate,2022-11-25T01:59:39-06:00*%
%TF.ProjectId,Game Genie v1.0,47616d65-2047-4656-9e69-652076312e30,rev?*%
%TF.SameCoordinates,Original*%
%TF.FileFunction,Paste,Top*%
%TF.FilePolarity,Positive*%
%FSLAX46Y46*%
G04 Gerber Fmt 4.6, Leading zero omitted, Abs format (unit mm)*
G04 Created by KiCad (PCBNEW (6.0.2)) date 2022-11-25 01:59:39*
%MOMM*%
%LPD*%
G01*
G04 APERTURE LIST*
%ADD10R,1.300000X3.800000*%
%ADD11R,0.750000X2.300000*%
%ADD12R,2.300000X0.750000*%
%ADD13R,2.250000X7.350000*%
%ADD14R,1.500000X7.350000*%
%ADD15R,2.500000X7.350000*%
G04 APERTURE END LIST*
D10*
%TO.C,J1*%
X117768000Y-63196000D03*
X120265727Y-63196000D03*
X122763454Y-63196000D03*
X125261181Y-63196000D03*
X127758908Y-63196000D03*
X130256635Y-63196000D03*
X132754362Y-63196000D03*
X135252089Y-63196000D03*
X137749816Y-63196000D03*
X140247543Y-63196000D03*
X142745270Y-63196000D03*
X145242997Y-63196000D03*
X147740724Y-63196000D03*
X150238451Y-63196000D03*
X152736178Y-63196000D03*
X155233905Y-63196000D03*
X157731632Y-63196000D03*
X160229359Y-63196000D03*
X162727086Y-63196000D03*
X165224813Y-63196000D03*
X167722540Y-63196000D03*
X170220267Y-63196000D03*
X172718000Y-63196000D03*
%TD*%
D11*
%TO.C,U1*%
X103815000Y-114148000D03*
X105085000Y-114148000D03*
X106355000Y-114148000D03*
X107625000Y-114148000D03*
X108895000Y-114148000D03*
X110165000Y-114148000D03*
X111435000Y-114148000D03*
X112705000Y-114148000D03*
X113975000Y-114148000D03*
D12*
X115815000Y-112308000D03*
X115815000Y-111038000D03*
X115815000Y-109768000D03*
X115815000Y-108498000D03*
X115815000Y-107228000D03*
X115815000Y-105958000D03*
X115815000Y-104688000D03*
X115815000Y-103418000D03*
X115815000Y-102148000D03*
X115815000Y-100878000D03*
X115815000Y-99608000D03*
X115815000Y-98338000D03*
X115815000Y-97068000D03*
X115815000Y-95798000D03*
X115815000Y-94528000D03*
X115815000Y-93258000D03*
X115815000Y-91988000D03*
D11*
X113975000Y-90148000D03*
X112705000Y-90148000D03*
X111435000Y-90148000D03*
X110165000Y-90148000D03*
X108895000Y-90148000D03*
X107625000Y-90148000D03*
X106355000Y-90148000D03*
X105085000Y-90148000D03*
X103815000Y-90148000D03*
X102545000Y-90148000D03*
X101275000Y-90148000D03*
X100005000Y-90148000D03*
X98735000Y-90148000D03*
X97465000Y-90148000D03*
X96195000Y-90148000D03*
X94925000Y-90148000D03*
X93655000Y-90148000D03*
D12*
X91815000Y-91988000D03*
X91815000Y-93258000D03*
X91815000Y-94528000D03*
X91815000Y-95798000D03*
X91815000Y-97068000D03*
X91815000Y-98338000D03*
X91815000Y-99608000D03*
X91815000Y-100878000D03*
X91815000Y-102148000D03*
X91815000Y-103418000D03*
X91815000Y-104688000D03*
X91815000Y-105958000D03*
X91815000Y-107228000D03*
X91815000Y-108498000D03*
X91815000Y-109768000D03*
X91815000Y-111038000D03*
X91815000Y-112308000D03*
D11*
X93655000Y-114148000D03*
X94925000Y-114148000D03*
X96195000Y-114148000D03*
X97465000Y-114148000D03*
X98735000Y-114148000D03*
X100005000Y-114148000D03*
X101275000Y-114148000D03*
X102545000Y-114148000D03*
%TD*%
D13*
%TO.C,P1*%
X117084000Y-133626000D03*
D14*
X119959000Y-133626000D03*
X122459000Y-133626000D03*
X124959000Y-133626000D03*
X127459000Y-133626000D03*
X129959000Y-133626000D03*
X132459000Y-133626000D03*
X134959000Y-133626000D03*
X137459000Y-133626000D03*
X139959000Y-133626000D03*
X142459000Y-133626000D03*
X144959000Y-133626000D03*
X147459000Y-133626000D03*
X149959000Y-133626000D03*
X152459000Y-133626000D03*
X154959000Y-133626000D03*
X157459000Y-133626000D03*
X159959000Y-133626000D03*
X162459000Y-133626000D03*
X164959000Y-133626000D03*
X167459000Y-133626000D03*
X169959000Y-133626000D03*
D15*
X172959000Y-133626000D03*
%TD*%
M02*
