M48
; DRILL file {KiCad (6.0.2)} date Fri Nov 25 01:59:41 2022
; FORMAT={-:-/ absolute / metric / decimal}
; #@! TF.CreationDate,2022-11-25T01:59:41-06:00
; #@! TF.GenerationSoftware,Kicad,Pcbnew,(6.0.2)
; #@! TF.FileFunction,Plated,1,2,PTH
FMAT,2
METRIC
; #@! TA.AperFunction,Plated,PTH,ViaDrill
T1C0.400
; #@! TA.AperFunction,Plated,PTH,ComponentDrill
T2C0.800
; #@! TA.AperFunction,Plated,PTH,ComponentDrill
T3C1.000
; #@! TA.AperFunction,Plated,PTH,ComponentDrill
T4C1.200
; #@! TA.AperFunction,Plated,PTH,ComponentDrill
T5C1.800
%
G90
G05
T1
X93.999Y-102.557
X94.459Y-105.958
X94.59Y-95.545
X95.069Y-94.61
X95.634Y-108.498
X96.069Y-94.341
X96.135Y-111.306
X96.317Y-112.352
X96.336Y-96.858
X96.578Y-107.999
X96.808Y-115.904
X97.062Y-106.834
X97.404Y-95.057
X97.786Y-112.397
X97.829Y-110.638
X101.452Y-100.878
X102.675Y-88.368
X105.426Y-112.388
X105.821Y-115.915
X106.701Y-91.912
X107.78Y-97.794
X110.654Y-120.177
X111.164Y-103.142
X111.384Y-118.956
X111.391Y-93.141
X111.5Y-91.903
X111.525Y-97.892
X112.325Y-110.337
X112.585Y-119.417
X113.051Y-111.068
X113.317Y-103.371
X114.017Y-93.258
X114.061Y-99.242
X114.951Y-113.829
X117.299Y-115.555
X117.579Y-107.993
X117.6Y-98.097
X118.033Y-105.497
X118.041Y-85.47
X119.211Y-91.058
X120.175Y-70.061
X120.993Y-87.6
X121.752Y-92.235
X121.852Y-73.674
X122.23Y-69.256
X122.37Y-123.696
X122.47Y-121.376
X122.612Y-70.531
X122.62Y-124.895
X123.34Y-104.328
X123.37Y-123.479
X123.371Y-122.119
X123.454Y-106.486
X123.49Y-116.751
X123.524Y-101.004
X123.64Y-90.18
X123.647Y-102.071
X123.697Y-113.663
X124.019Y-124.244
X124.228Y-129.35
X124.414Y-126.349
X124.874Y-108.783
X124.916Y-103.206
X125.319Y-95.204
X125.486Y-115.422
X125.504Y-105.434
X125.517Y-69.037
X125.754Y-103.984
X125.874Y-67.609
X126.039Y-129.401
X126.069Y-107.228
X126.797Y-92.039
X126.994Y-68.408
X127.021Y-109.768
X127.265Y-111.038
X127.56Y-74.757
X127.849Y-95.798
X127.902Y-98.771
X128.127Y-109.513
X128.129Y-69.658
X128.66Y-129.505
X129.022Y-100.059
X129.382Y-67.49
X129.457Y-77.438
X129.615Y-101.305
X130.02Y-129.347
X130.47Y-97.927
X130.643Y-123.012
X130.643Y-125.813
X131.566Y-103.284
X131.813Y-106.538
X131.843Y-86.802
X132.116Y-90.954
X132.323Y-117.279
X132.335Y-88.702
X133.003Y-72.679
X133.011Y-129.34
X133.526Y-126.019
X133.94Y-127.522
X134.105Y-67.35
X134.513Y-71.35
X135.638Y-69.928
X135.762Y-71.729
X135.79Y-124.378
X135.947Y-110.435
X136.098Y-92.699
X136.132Y-112.456
X136.772Y-99.109
X136.975Y-123.203
X137.188Y-108.662
X137.4Y-73.997
X138.447Y-90.311
X138.63Y-105.825
X138.637Y-69.203
X139.295Y-81.382
X139.426Y-112.516
X139.556Y-78.705
X139.926Y-102.549
X139.93Y-92.238
X139.959Y-129.348
X140.31Y-89.58
X141.376Y-103.064
X141.729Y-86.781
X142.001Y-123.841
X142.002Y-71.552
X143.604Y-86.66
X144.534Y-86.175
X144.538Y-127.194
X147.471Y-67.531
X147.812Y-71.039
X148.147Y-129.254
X148.59Y-104.79
X149.193Y-94.33
X149.193Y-96.569
X149.501Y-129.336
X149.643Y-99.009
X149.79Y-89.899
X149.823Y-118.922
X149.951Y-76.572
X149.956Y-68.456
X150.517Y-87.733
X150.945Y-117.356
X151.13Y-107.34
X151.796Y-70.103
X152.357Y-118.269
X153.302Y-113.011
X153.851Y-103.787
X154.484Y-121.376
X154.58Y-110.602
X155.403Y-81.341
X155.662Y-129.247
X155.744Y-122.143
X155.864Y-115.478
X156.183Y-108.206
X156.375Y-128.544
X157.082Y-108.829
X158.038Y-99.151
X158.049Y-112.733
X158.116Y-127.194
X158.315Y-95.173
X158.411Y-72.245
X158.651Y-129.519
X158.782Y-116.632
X159.333Y-120.41
X159.656Y-72.847
X159.741Y-101.88
X160.207Y-82.59
X160.233Y-123.493
X160.594Y-127.943
X160.646Y-68.945
X160.754Y-72.919
X160.805Y-96.319
X160.843Y-89.777
X161.214Y-129.588
X161.26Y-127.194
X161.293Y-91.389
X161.644Y-98.257
X163.103Y-99.972
X163.103Y-104.246
X163.142Y-108.613
X163.699Y-69.076
X163.859Y-85.951
X164.018Y-124.277
X164.21Y-129.237
X164.587Y-83.769
X165.529Y-113.632
X166.07Y-112.733
X166.443Y-92.558
X167.214Y-128.766
X167.347Y-117.406
X168.346Y-116.629
X168.432Y-79.238
X168.577Y-97.873
X169.421Y-67.504
X169.983Y-77.22
X172.533Y-108.041
X172.741Y-93.924
X172.959Y-129.328
X173.921Y-127.792
X174.448Y-116.772
X174.936Y-107.943
X174.979Y-103.966
X175.718Y-95.849
X176.039Y-119.674
X176.061Y-116.459
X176.699Y-90.004
X179.438Y-105.33
X179.503Y-79.454
X180.874Y-112.546
X181.447Y-115.021
X181.555Y-101.549
X181.576Y-68.843
X182.032Y-107.943
X182.988Y-125.735
X184.177Y-113.37
X184.184Y-115.469
X187.047Y-84.892
X187.77Y-120.168
T2
X129.692Y-76.015
X129.692Y-83.635
X132.232Y-76.015
X132.232Y-83.635
X134.618Y-91.489
X134.618Y-94.029
X134.618Y-96.569
X134.618Y-99.109
X134.618Y-101.649
X134.618Y-104.189
X134.618Y-106.729
X134.618Y-109.269
X134.618Y-111.809
X134.618Y-114.349
X134.772Y-76.015
X134.772Y-83.635
X137.312Y-76.015
X137.312Y-83.635
X139.852Y-76.015
X139.852Y-83.635
X142.238Y-91.489
X142.238Y-94.029
X142.238Y-96.569
X142.238Y-99.109
X142.238Y-101.649
X142.238Y-104.189
X142.238Y-106.729
X142.238Y-109.269
X142.238Y-111.809
X142.238Y-114.349
X142.392Y-76.015
X142.392Y-83.635
X144.932Y-76.015
X144.932Y-83.635
X152.432Y-81.229
X152.432Y-83.769
X152.432Y-86.309
X152.432Y-88.849
X152.432Y-91.389
X152.432Y-93.929
X152.432Y-96.469
X152.432Y-99.009
X152.432Y-101.549
X152.432Y-104.089
X152.432Y-106.629
X152.432Y-109.169
X152.432Y-111.709
X152.432Y-114.249
X167.672Y-81.229
X167.672Y-83.769
X167.672Y-86.309
X167.672Y-88.849
X167.672Y-91.389
X167.672Y-93.929
X167.672Y-96.469
X167.672Y-99.009
X167.672Y-101.549
X167.672Y-104.089
X167.672Y-106.629
X167.672Y-109.169
X167.672Y-111.709
X167.672Y-114.249
X178.079Y-71.064
X178.079Y-73.604
X178.079Y-76.144
X178.079Y-78.684
X178.079Y-81.224
X178.079Y-83.764
X178.079Y-86.304
X178.079Y-88.844
X178.079Y-91.384
X178.079Y-93.924
X178.079Y-99.009
X178.079Y-101.549
X178.079Y-104.089
X178.079Y-106.629
X178.079Y-109.169
X178.079Y-111.709
X178.079Y-114.249
X178.079Y-116.789
X178.079Y-119.329
X178.079Y-121.869
X185.699Y-71.064
X185.699Y-73.604
X185.699Y-76.144
X185.699Y-78.684
X185.699Y-81.224
X185.699Y-83.764
X185.699Y-86.304
X185.699Y-88.844
X185.699Y-91.384
X185.699Y-93.924
X185.699Y-99.009
X185.699Y-101.549
X185.699Y-104.089
X185.699Y-106.629
X185.699Y-109.169
X185.699Y-111.709
X185.699Y-114.249
X185.699Y-116.789
X185.699Y-119.329
X185.699Y-121.869
X190.783Y-71.064
X190.783Y-73.604
X190.783Y-76.144
X190.783Y-78.684
X190.783Y-81.224
X190.783Y-83.764
X190.783Y-86.304
X190.783Y-88.844
X190.783Y-91.384
X190.783Y-93.924
X190.783Y-99.009
X190.783Y-101.549
X190.783Y-104.089
X190.783Y-106.629
X190.783Y-109.169
X190.783Y-111.709
X190.783Y-114.249
X190.783Y-116.789
X190.783Y-119.329
X190.783Y-121.869
X198.403Y-71.064
X198.403Y-73.604
X198.403Y-76.144
X198.403Y-78.684
X198.403Y-81.224
X198.403Y-83.764
X198.403Y-86.304
X198.403Y-88.844
X198.403Y-91.384
X198.403Y-93.924
X198.403Y-99.009
X198.403Y-101.549
X198.403Y-104.089
X198.403Y-106.629
X198.403Y-109.169
X198.403Y-111.709
X198.403Y-114.249
X198.403Y-116.789
X198.403Y-119.329
X198.403Y-121.869
T3
X86.012Y-114.156
X86.012Y-119.706
X91.137Y-70.969
X91.137Y-73.554
X91.137Y-76.067
X93.633Y-78.634
X93.671Y-85.783
X99.183Y-78.634
X99.221Y-85.783
X101.837Y-70.969
X101.837Y-73.554
X101.837Y-76.067
X106.137Y-123.437
X107.428Y-66.413
X110.628Y-66.413
X111.687Y-123.437
X116.915Y-75.858
X116.915Y-81.408
X116.943Y-68.147
X116.943Y-71.247
X139.706Y-73.505
X144.872Y-108.983
X144.872Y-114.533
X145.256Y-73.505
X149.051Y-67.55
X149.051Y-78.25
X151.603Y-67.55
X151.603Y-78.25
X154.136Y-67.55
X154.136Y-78.25
X156.669Y-67.55
X156.669Y-78.25
X159.24Y-67.55
X159.24Y-78.25
X161.792Y-67.55
X161.792Y-78.25
X164.344Y-67.55
X164.344Y-78.25
X166.906Y-67.55
X166.906Y-78.25
X171.873Y-81.011
X171.873Y-86.561
X172.277Y-116.669
X172.277Y-122.219
X172.988Y-67.55
X172.988Y-78.25
X175.634Y-67.55
X175.634Y-78.25
X180.442Y-65.954
X185.992Y-65.954
X188.185Y-93.769
X188.185Y-99.319
X203.42Y-116.66
X203.42Y-122.21
T4
X109.051Y-75.023
X109.051Y-78.123
X109.051Y-81.223
T5
X109.051Y-72.323
X109.051Y-83.923
T0
M30
