%TF.GenerationSoftware,KiCad,Pcbnew,(6.0.2)*%
%TF.CreationDate,2022-11-25T01:59:39-06:00*%
%TF.ProjectId,Game Genie v1.0,47616d65-2047-4656-9e69-652076312e30,rev?*%
%TF.SameCoordinates,Original*%
%TF.FileFunction,Copper,L2,Bot*%
%TF.FilePolarity,Positive*%
%FSLAX46Y46*%
G04 Gerber Fmt 4.6, Leading zero omitted, Abs format (unit mm)*
G04 Created by KiCad (PCBNEW (6.0.2)) date 2022-11-25 01:59:39*
%MOMM*%
%LPD*%
G01*
G04 APERTURE LIST*
%TA.AperFunction,ComponentPad*%
%ADD10C,1.300000*%
%TD*%
%TA.AperFunction,ComponentPad*%
%ADD11R,1.600000X1.600000*%
%TD*%
%TA.AperFunction,ComponentPad*%
%ADD12O,1.600000X1.600000*%
%TD*%
%TA.AperFunction,SMDPad,CuDef*%
%ADD13R,1.300000X3.800000*%
%TD*%
%TA.AperFunction,ComponentPad*%
%ADD14C,1.800000*%
%TD*%
%TA.AperFunction,ComponentPad*%
%ADD15C,2.600000*%
%TD*%
%TA.AperFunction,ComponentPad*%
%ADD16C,1.500000*%
%TD*%
%TA.AperFunction,SMDPad,CuDef*%
%ADD17R,2.500000X7.350000*%
%TD*%
%TA.AperFunction,SMDPad,CuDef*%
%ADD18R,1.500000X7.350000*%
%TD*%
%TA.AperFunction,SMDPad,CuDef*%
%ADD19R,2.250000X7.350000*%
%TD*%
%TA.AperFunction,ViaPad*%
%ADD20C,0.800000*%
%TD*%
%TA.AperFunction,Conductor*%
%ADD21C,0.600000*%
%TD*%
%TA.AperFunction,Conductor*%
%ADD22C,0.250000*%
%TD*%
G04 APERTURE END LIST*
D10*
%TO.P,C2,1*%
%TO.N,/VCC*%
X93671000Y-85783000D03*
%TO.P,C2,2*%
%TO.N,/GND*%
X99221000Y-85783000D03*
%TD*%
%TO.P,C12,1*%
%TO.N,/GND*%
X172277000Y-122219000D03*
%TO.P,C12,2*%
%TO.N,/VCC*%
X172277000Y-116669000D03*
%TD*%
D11*
%TO.P,U5,1,~{E}*%
%TO.N,/U5.E*%
X198403000Y-121869000D03*
D12*
%TO.P,U5,2,Q0*%
%TO.N,Net-(U5-Pad2)*%
X198403000Y-119329000D03*
%TO.P,U5,3,D0*%
%TO.N,/U5.D0*%
X198403000Y-116789000D03*
%TO.P,U5,4,D1*%
%TO.N,/U5.D1*%
X198403000Y-114249000D03*
%TO.P,U5,5,Q1*%
%TO.N,Net-(U5-Pad5)*%
X198403000Y-111709000D03*
%TO.P,U5,6,Q2*%
%TO.N,Net-(U5-Pad6)*%
X198403000Y-109169000D03*
%TO.P,U5,7,D2*%
%TO.N,/U5.D2*%
X198403000Y-106629000D03*
%TO.P,U5,8,D3*%
%TO.N,/U5.D3*%
X198403000Y-104089000D03*
%TO.P,U5,9,Q3*%
%TO.N,Net-(U5-Pad9)*%
X198403000Y-101549000D03*
%TO.P,U5,10,GND*%
%TO.N,/GND*%
X198403000Y-99009000D03*
%TO.P,U5,11,CP*%
%TO.N,/U8{slash}U5.CP*%
X190783000Y-99009000D03*
%TO.P,U5,12,Q4*%
%TO.N,Net-(U5-Pad12)*%
X190783000Y-101549000D03*
%TO.P,U5,13,D4*%
%TO.N,/U5.D4*%
X190783000Y-104089000D03*
%TO.P,U5,14,D5*%
%TO.N,/U5.D5*%
X190783000Y-106629000D03*
%TO.P,U5,15,Q5*%
%TO.N,Net-(U5-Pad15)*%
X190783000Y-109169000D03*
%TO.P,U5,16,Q6*%
%TO.N,Net-(U5-Pad16)*%
X190783000Y-111709000D03*
%TO.P,U5,17,D6*%
%TO.N,/U5.D6*%
X190783000Y-114249000D03*
%TO.P,U5,18,D7*%
%TO.N,/U5.D7*%
X190783000Y-116789000D03*
%TO.P,U5,19,Q7*%
%TO.N,Net-(U5-Pad19)*%
X190783000Y-119329000D03*
%TO.P,U5,20,VCC*%
%TO.N,/VCC*%
X190783000Y-121869000D03*
%TD*%
D10*
%TO.P,D3,1,K*%
%TO.N,/VCC*%
X175634000Y-78250000D03*
%TO.P,D3,2,A*%
%TO.N,/TopFront.VCC*%
X175634000Y-67550000D03*
%TD*%
D13*
%TO.P,J1,24,VCC*%
%TO.N,/TopRear.VCC*%
X172718000Y-63196000D03*
%TO.P,J1,25,SYS_CLK*%
%TO.N,/SYS_CLK*%
X170220267Y-63196000D03*
%TO.P,J1,26,CIC_6*%
%TO.N,/CIC_6*%
X167722540Y-63196000D03*
%TO.P,J1,27,CIC_2*%
%TO.N,/CIC_2*%
X165224813Y-63196000D03*
%TO.P,J1,28,/WR*%
%TO.N,/Write*%
X162727086Y-63196000D03*
%TO.P,J1,29,D7*%
%TO.N,/Top.D7*%
X160229359Y-63196000D03*
%TO.P,J1,30,D6*%
%TO.N,/Top.D6*%
X157731632Y-63196000D03*
%TO.P,J1,31,D5*%
%TO.N,/Top.D5*%
X155233905Y-63196000D03*
%TO.P,J1,32,D4*%
%TO.N,/Top.D4*%
X152736178Y-63196000D03*
%TO.P,J1,33,/CART*%
%TO.N,/Top.CART*%
X150238451Y-63196000D03*
%TO.P,J1,34,BA7*%
%TO.N,/BA7*%
X147740724Y-63196000D03*
%TO.P,J1,35,BA6*%
%TO.N,/BA6*%
X145242997Y-63196000D03*
%TO.P,J1,36,BA5*%
%TO.N,/BA5*%
X142745270Y-63196000D03*
%TO.P,J1,37,BA4*%
%TO.N,/BA4*%
X140247543Y-63196000D03*
%TO.P,J1,38,BA3*%
%TO.N,/BA3*%
X137749816Y-63196000D03*
%TO.P,J1,39,BA2*%
%TO.N,/BA2*%
X135252089Y-63196000D03*
%TO.P,J1,40,BA1*%
%TO.N,/BA1*%
X132754362Y-63196000D03*
%TO.P,J1,41,BA0*%
%TO.N,/BA0*%
X130256635Y-63196000D03*
%TO.P,J1,42,A15*%
%TO.N,/A15*%
X127758908Y-63196000D03*
%TO.P,J1,43,A14*%
%TO.N,/A14*%
X125261181Y-63196000D03*
%TO.P,J1,44,A13*%
%TO.N,/A13*%
X122763454Y-63196000D03*
%TO.P,J1,45,A12*%
%TO.N,/A12*%
X120265727Y-63196000D03*
%TO.P,J1,46,GND*%
%TO.N,/GND*%
X117768000Y-63196000D03*
%TD*%
D10*
%TO.P,D4,1,K*%
%TO.N,/VCC*%
X172988000Y-78250000D03*
%TO.P,D4,2,A*%
%TO.N,/TopRear.VCC*%
X172988000Y-67550000D03*
%TD*%
%TO.P,R3,1*%
%TO.N,/D0*%
X149051000Y-78250000D03*
%TO.P,R3,2*%
%TO.N,/Top.D0*%
X149051000Y-67550000D03*
%TD*%
D11*
%TO.P,U6,1,OEa*%
%TO.N,/U6.OE*%
X185699000Y-121869000D03*
D12*
%TO.P,U6,2,I0a*%
%TO.N,Net-(U5-Pad2)*%
X185699000Y-119329000D03*
%TO.P,U6,3,O3b*%
%TO.N,/D7*%
X185699000Y-116789000D03*
%TO.P,U6,4,I1a*%
%TO.N,Net-(U5-Pad5)*%
X185699000Y-114249000D03*
%TO.P,U6,5,O2b*%
%TO.N,/D6*%
X185699000Y-111709000D03*
%TO.P,U6,6,I2a*%
%TO.N,Net-(U5-Pad6)*%
X185699000Y-109169000D03*
%TO.P,U6,7,O1b*%
%TO.N,/D5*%
X185699000Y-106629000D03*
%TO.P,U6,8,I3a*%
%TO.N,Net-(U5-Pad9)*%
X185699000Y-104089000D03*
%TO.P,U6,9,O0b*%
%TO.N,/D4*%
X185699000Y-101549000D03*
%TO.P,U6,10,GND*%
%TO.N,/GND*%
X185699000Y-99009000D03*
%TO.P,U6,11,I0b*%
%TO.N,Net-(U5-Pad12)*%
X178079000Y-99009000D03*
%TO.P,U6,12,O3a*%
%TO.N,/D3*%
X178079000Y-101549000D03*
%TO.P,U6,13,I1b*%
%TO.N,Net-(U5-Pad15)*%
X178079000Y-104089000D03*
%TO.P,U6,14,O2a*%
%TO.N,/D2*%
X178079000Y-106629000D03*
%TO.P,U6,15,I2b*%
%TO.N,Net-(U5-Pad16)*%
X178079000Y-109169000D03*
%TO.P,U6,16,O1a*%
%TO.N,/D1*%
X178079000Y-111709000D03*
%TO.P,U6,17,I3b*%
%TO.N,Net-(U5-Pad19)*%
X178079000Y-114249000D03*
%TO.P,U6,18,O0a*%
%TO.N,/D0*%
X178079000Y-116789000D03*
%TO.P,U6,19,OEb*%
%TO.N,/U6.OE*%
X178079000Y-119329000D03*
%TO.P,U6,20,VCC*%
%TO.N,/VCC*%
X178079000Y-121869000D03*
%TD*%
D11*
%TO.P,U7,1,OEa*%
%TO.N,/U7.OE*%
X185699000Y-93924000D03*
D12*
%TO.P,U7,2,I0a*%
%TO.N,Net-(U8-Pad2)*%
X185699000Y-91384000D03*
%TO.P,U7,3,O3b*%
%TO.N,/U5.D7*%
X185699000Y-88844000D03*
%TO.P,U7,4,I1a*%
%TO.N,Net-(U8-Pad5)*%
X185699000Y-86304000D03*
%TO.P,U7,5,O2b*%
%TO.N,/U5.D6*%
X185699000Y-83764000D03*
%TO.P,U7,6,I2a*%
%TO.N,Net-(U8-Pad6)*%
X185699000Y-81224000D03*
%TO.P,U7,7,O1b*%
%TO.N,/U5.D5*%
X185699000Y-78684000D03*
%TO.P,U7,8,I3a*%
%TO.N,Net-(U8-Pad9)*%
X185699000Y-76144000D03*
%TO.P,U7,9,O0b*%
%TO.N,/U5.D4*%
X185699000Y-73604000D03*
%TO.P,U7,10,GND*%
%TO.N,/GND*%
X185699000Y-71064000D03*
%TO.P,U7,11,I0b*%
%TO.N,Net-(U8-Pad12)*%
X178079000Y-71064000D03*
%TO.P,U7,12,O3a*%
%TO.N,/U5.D3*%
X178079000Y-73604000D03*
%TO.P,U7,13,I1b*%
%TO.N,Net-(U8-Pad15)*%
X178079000Y-76144000D03*
%TO.P,U7,14,O2a*%
%TO.N,/U5.D2*%
X178079000Y-78684000D03*
%TO.P,U7,15,I2b*%
%TO.N,Net-(U8-Pad16)*%
X178079000Y-81224000D03*
%TO.P,U7,16,O1a*%
%TO.N,/U5.D1*%
X178079000Y-83764000D03*
%TO.P,U7,17,I3b*%
%TO.N,Net-(U8-Pad19)*%
X178079000Y-86304000D03*
%TO.P,U7,18,O0a*%
%TO.N,/U5.D0*%
X178079000Y-88844000D03*
%TO.P,U7,19,OEb*%
%TO.N,/U7.OE*%
X178079000Y-91384000D03*
%TO.P,U7,20,VCC*%
%TO.N,/VCC*%
X178079000Y-93924000D03*
%TD*%
D10*
%TO.P,C9,1*%
%TO.N,/VCC*%
X180442000Y-65954000D03*
%TO.P,C9,2*%
%TO.N,/GND*%
X185992000Y-65954000D03*
%TD*%
%TO.P,C8,1*%
%TO.N,/VCC*%
X139706000Y-73505000D03*
%TO.P,C8,2*%
%TO.N,/GND*%
X145256000Y-73505000D03*
%TD*%
%TO.P,R7,1*%
%TO.N,/D4*%
X151603000Y-78250000D03*
%TO.P,R7,2*%
%TO.N,/Top.D4*%
X151603000Y-67550000D03*
%TD*%
%TO.P,C4,1*%
%TO.N,/GND*%
X86012000Y-119706000D03*
%TO.P,C4,2*%
%TO.N,/VCC*%
X86012000Y-114156000D03*
%TD*%
D11*
%TO.P,U3,1,I1*%
%TO.N,/Wire1*%
X142238000Y-114349000D03*
D12*
%TO.P,U3,2,I2*%
%TO.N,/Wire2*%
X142238000Y-111809000D03*
%TO.P,U3,3,I3*%
%TO.N,/LS30.OUT*%
X142238000Y-109269000D03*
%TO.P,U3,4,I4*%
%TO.N,/SYS_CLK*%
X142238000Y-106729000D03*
%TO.P,U3,5,I5*%
%TO.N,/A0*%
X142238000Y-104189000D03*
%TO.P,U3,6,I6*%
%TO.N,/A8*%
X142238000Y-101649000D03*
%TO.P,U3,7,I7*%
%TO.N,/A15*%
X142238000Y-99109000D03*
%TO.P,U3,8,I8*%
%TO.N,/Bottom.CART*%
X142238000Y-96569000D03*
%TO.P,U3,9,I9*%
%TO.N,/Read*%
X142238000Y-94029000D03*
%TO.P,U3,10,GND*%
%TO.N,/GND*%
X142238000Y-91489000D03*
%TO.P,U3,11,I10*%
%TO.N,/Write*%
X134618000Y-91489000D03*
%TO.P,U3,12,IO8*%
%TO.N,/Top.CART*%
X134618000Y-94029000D03*
%TO.P,U3,13,IO7*%
%TO.N,/U6.OE*%
X134618000Y-96569000D03*
%TO.P,U3,14,IO6*%
%TO.N,/U8.E*%
X134618000Y-99109000D03*
%TO.P,U3,15,IO5*%
%TO.N,/U7.OE*%
X134618000Y-101649000D03*
%TO.P,U3,16,IO4*%
%TO.N,/U5.E*%
X134618000Y-104189000D03*
%TO.P,U3,17,I03*%
%TO.N,/U8{slash}U5.CP*%
X134618000Y-106729000D03*
%TO.P,U3,18,IO2*%
%TO.N,/Wire3*%
X134618000Y-109269000D03*
%TO.P,U3,19,IO1*%
%TO.N,/Wire4*%
X134618000Y-111809000D03*
%TO.P,U3,20,VCC*%
%TO.N,/VCC*%
X134618000Y-114349000D03*
%TD*%
D10*
%TO.P,C6,1*%
%TO.N,/VCC*%
X106137000Y-123437000D03*
%TO.P,C6,2*%
%TO.N,/GND*%
X111687000Y-123437000D03*
%TD*%
%TO.P,R6,1*%
%TO.N,/D3*%
X159240000Y-78250000D03*
%TO.P,R6,2*%
%TO.N,/Top.D3*%
X159240000Y-67550000D03*
%TD*%
%TO.P,R4,1*%
%TO.N,/D1*%
X166906000Y-78250000D03*
%TO.P,R4,2*%
%TO.N,/Top.D1*%
X166906000Y-67550000D03*
%TD*%
D11*
%TO.P,U8,1,~{E}*%
%TO.N,/U8.E*%
X198403000Y-93924000D03*
D12*
%TO.P,U8,2,Q0*%
%TO.N,Net-(U8-Pad2)*%
X198403000Y-91384000D03*
%TO.P,U8,3,D0*%
%TO.N,/D0*%
X198403000Y-88844000D03*
%TO.P,U8,4,D1*%
%TO.N,/D1*%
X198403000Y-86304000D03*
%TO.P,U8,5,Q1*%
%TO.N,Net-(U8-Pad5)*%
X198403000Y-83764000D03*
%TO.P,U8,6,Q2*%
%TO.N,Net-(U8-Pad6)*%
X198403000Y-81224000D03*
%TO.P,U8,7,D2*%
%TO.N,/D2*%
X198403000Y-78684000D03*
%TO.P,U8,8,D3*%
%TO.N,/D3*%
X198403000Y-76144000D03*
%TO.P,U8,9,Q3*%
%TO.N,Net-(U8-Pad9)*%
X198403000Y-73604000D03*
%TO.P,U8,10,GND*%
%TO.N,/GND*%
X198403000Y-71064000D03*
%TO.P,U8,11,CP*%
%TO.N,/U8{slash}U5.CP*%
X190783000Y-71064000D03*
%TO.P,U8,12,Q4*%
%TO.N,Net-(U8-Pad12)*%
X190783000Y-73604000D03*
%TO.P,U8,13,D4*%
%TO.N,/D4*%
X190783000Y-76144000D03*
%TO.P,U8,14,D5*%
%TO.N,/D5*%
X190783000Y-78684000D03*
%TO.P,U8,15,Q5*%
%TO.N,Net-(U8-Pad15)*%
X190783000Y-81224000D03*
%TO.P,U8,16,Q6*%
%TO.N,Net-(U8-Pad16)*%
X190783000Y-83764000D03*
%TO.P,U8,17,D6*%
%TO.N,/D6*%
X190783000Y-86304000D03*
%TO.P,U8,18,D7*%
%TO.N,/D7*%
X190783000Y-88844000D03*
%TO.P,U8,19,Q7*%
%TO.N,Net-(U8-Pad19)*%
X190783000Y-91384000D03*
%TO.P,U8,20,VCC*%
%TO.N,/VCC*%
X190783000Y-93924000D03*
%TD*%
D10*
%TO.P,C13,1*%
%TO.N,/VCC*%
X171873000Y-86561000D03*
%TO.P,C13,2*%
%TO.N,/GND*%
X171873000Y-81011000D03*
%TD*%
%TO.P,R9,1*%
%TO.N,/D6*%
X156669000Y-78250000D03*
%TO.P,R9,2*%
%TO.N,/Top.D6*%
X156669000Y-67550000D03*
%TD*%
%TO.P,C10,1*%
%TO.N,/Wire5*%
X93633000Y-78634000D03*
%TO.P,C10,2*%
%TO.N,/GND*%
X99183000Y-78634000D03*
%TD*%
%TO.P,R10,1*%
%TO.N,/D7*%
X161792000Y-78250000D03*
%TO.P,R10,2*%
%TO.N,/Top.D7*%
X161792000Y-67550000D03*
%TD*%
D11*
%TO.P,U4,1*%
%TO.N,/BA0*%
X129692000Y-83635000D03*
D12*
%TO.P,U4,2*%
%TO.N,/BA1*%
X132232000Y-83635000D03*
%TO.P,U4,3*%
%TO.N,/BA2*%
X134772000Y-83635000D03*
%TO.P,U4,4*%
%TO.N,/BA3*%
X137312000Y-83635000D03*
%TO.P,U4,5*%
%TO.N,/BA4*%
X139852000Y-83635000D03*
%TO.P,U4,6*%
%TO.N,/BA5*%
X142392000Y-83635000D03*
%TO.P,U4,7,GND*%
%TO.N,/GND*%
X144932000Y-83635000D03*
%TO.P,U4,8*%
%TO.N,/LS30.OUT*%
X144932000Y-76015000D03*
%TO.P,U4,9*%
%TO.N,N/C*%
X142392000Y-76015000D03*
%TO.P,U4,10*%
X139852000Y-76015000D03*
%TO.P,U4,11*%
%TO.N,/BA6*%
X137312000Y-76015000D03*
%TO.P,U4,12*%
%TO.N,/BA7*%
X134772000Y-76015000D03*
%TO.P,U4,13*%
%TO.N,N/C*%
X132232000Y-76015000D03*
%TO.P,U4,14,VCC*%
%TO.N,/VCC*%
X129692000Y-76015000D03*
%TD*%
D10*
%TO.P,C3,1*%
%TO.N,/VCC*%
X116915000Y-81408000D03*
%TO.P,C3,2*%
%TO.N,/GND*%
X116915000Y-75858000D03*
%TD*%
%TO.P,R8,1*%
%TO.N,/D5*%
X154136000Y-78250000D03*
%TO.P,R8,2*%
%TO.N,/Top.D5*%
X154136000Y-67550000D03*
%TD*%
%TO.P,R1,1*%
%TO.N,/VCC*%
X91137000Y-73554000D03*
%TO.P,R1,2*%
%TO.N,/Wire5*%
X101837000Y-73554000D03*
%TD*%
D14*
%TO.P,S1,1,A*%
%TO.N,unconnected-(S1-Pad1)*%
X109051000Y-81223000D03*
%TO.P,S1,2,B*%
%TO.N,/GND*%
X109051000Y-78123000D03*
%TO.P,S1,3,C*%
%TO.N,/Switch*%
X109051000Y-75023000D03*
D15*
%TO.P,S1,4,Shield*%
%TO.N,/GND*%
X109051000Y-83923000D03*
X109051000Y-72323000D03*
%TD*%
D10*
%TO.P,C5,1*%
%TO.N,/VCC*%
X144872000Y-114533000D03*
%TO.P,C5,2*%
%TO.N,/GND*%
X144872000Y-108983000D03*
%TD*%
%TO.P,C11,1*%
%TO.N,/GND*%
X188185000Y-99319000D03*
%TO.P,C11,2*%
%TO.N,/VCC*%
X188185000Y-93769000D03*
%TD*%
%TO.P,D1,1,K*%
%TO.N,/Wire5*%
X91137000Y-70969000D03*
%TO.P,D1,2,A*%
%TO.N,/VCC*%
X101837000Y-70969000D03*
%TD*%
D16*
%TO.P,D2,1,K*%
%TO.N,/Switch*%
X107428000Y-66413000D03*
%TO.P,D2,2,A*%
%TO.N,/Wire6*%
X110628000Y-66413000D03*
%TD*%
D10*
%TO.P,R5,1*%
%TO.N,/D2*%
X164344000Y-78250000D03*
%TO.P,R5,2*%
%TO.N,/Top.D2*%
X164344000Y-67550000D03*
%TD*%
%TO.P,C7,1*%
%TO.N,/VCC*%
X203420000Y-122210000D03*
%TO.P,C7,2*%
%TO.N,/GND*%
X203420000Y-116660000D03*
%TD*%
%TO.P,C1,1*%
%TO.N,/VCC*%
X116943000Y-71247000D03*
%TO.P,C1,2*%
%TO.N,/GND*%
X116943000Y-68147000D03*
%TD*%
D11*
%TO.P,U2,1,A15*%
%TO.N,/BA0*%
X167672000Y-114249000D03*
D12*
%TO.P,U2,2,A12*%
%TO.N,/A12*%
X167672000Y-111709000D03*
%TO.P,U2,3,A7*%
%TO.N,/A7*%
X167672000Y-109169000D03*
%TO.P,U2,4,A6*%
%TO.N,/A6*%
X167672000Y-106629000D03*
%TO.P,U2,5,A5*%
%TO.N,/A5*%
X167672000Y-104089000D03*
%TO.P,U2,6,A4*%
%TO.N,/A4*%
X167672000Y-101549000D03*
%TO.P,U2,7,A3*%
%TO.N,/A3*%
X167672000Y-99009000D03*
%TO.P,U2,8,A2*%
%TO.N,/A2*%
X167672000Y-96469000D03*
%TO.P,U2,9,A1*%
%TO.N,/A1*%
X167672000Y-93929000D03*
%TO.P,U2,10,A0*%
%TO.N,/A0*%
X167672000Y-91389000D03*
%TO.P,U2,11,DQ0*%
%TO.N,/D0*%
X167672000Y-88849000D03*
%TO.P,U2,12,DQ1*%
%TO.N,/D1*%
X167672000Y-86309000D03*
%TO.P,U2,13,DQ2*%
%TO.N,/D2*%
X167672000Y-83769000D03*
%TO.P,U2,14,GND*%
%TO.N,/GND*%
X167672000Y-81229000D03*
%TO.P,U2,15,DQ3*%
%TO.N,/D3*%
X152432000Y-81229000D03*
%TO.P,U2,16,DQ4*%
%TO.N,/D4*%
X152432000Y-83769000D03*
%TO.P,U2,17,DQ5*%
%TO.N,/D5*%
X152432000Y-86309000D03*
%TO.P,U2,18,DQ6*%
%TO.N,/D6*%
X152432000Y-88849000D03*
%TO.P,U2,19,DQ7*%
%TO.N,/D7*%
X152432000Y-91389000D03*
%TO.P,U2,20,E*%
%TO.N,/Wire2*%
X152432000Y-93929000D03*
%TO.P,U2,21,A10*%
%TO.N,/A10*%
X152432000Y-96469000D03*
%TO.P,U2,22,G/VPP*%
%TO.N,/Read*%
X152432000Y-99009000D03*
%TO.P,U2,23,A11*%
%TO.N,/A11*%
X152432000Y-101549000D03*
%TO.P,U2,24,A9*%
%TO.N,/A9*%
X152432000Y-104089000D03*
%TO.P,U2,25,A8*%
%TO.N,/A8*%
X152432000Y-106629000D03*
%TO.P,U2,26,A13*%
%TO.N,/A13*%
X152432000Y-109169000D03*
%TO.P,U2,27,A14*%
%TO.N,/A14*%
X152432000Y-111709000D03*
%TO.P,U2,28,VCC*%
%TO.N,/VCC*%
X152432000Y-114249000D03*
%TD*%
D17*
%TO.P,P1,24,VCC*%
%TO.N,/VCC*%
X172959000Y-133626000D03*
D18*
%TO.P,P1,25,SYS_CLK*%
%TO.N,/SYS_CLK*%
X169959000Y-133626000D03*
%TO.P,P1,26,CIC_6*%
%TO.N,/CIC_6*%
X167459000Y-133626000D03*
%TO.P,P1,27,CIC_2*%
%TO.N,/CIC_2*%
X164959000Y-133626000D03*
%TO.P,P1,28,/WR*%
%TO.N,/Write*%
X162459000Y-133626000D03*
%TO.P,P1,29,D7*%
%TO.N,/D7*%
X159959000Y-133626000D03*
%TO.P,P1,30,D6*%
%TO.N,/D6*%
X157459000Y-133626000D03*
%TO.P,P1,31,D5*%
%TO.N,/D5*%
X154959000Y-133626000D03*
%TO.P,P1,32,D4*%
%TO.N,/D4*%
X152459000Y-133626000D03*
%TO.P,P1,33,/CART*%
%TO.N,/Bottom.CART*%
X149959000Y-133626000D03*
%TO.P,P1,34,BA7*%
%TO.N,/BA7*%
X147459000Y-133626000D03*
%TO.P,P1,35,BA6*%
%TO.N,/BA6*%
X144959000Y-133626000D03*
%TO.P,P1,36,BA5*%
%TO.N,/BA5*%
X142459000Y-133626000D03*
%TO.P,P1,37,BA4*%
%TO.N,/BA4*%
X139959000Y-133626000D03*
%TO.P,P1,38,BA3*%
%TO.N,/BA3*%
X137459000Y-133626000D03*
%TO.P,P1,39,BA2*%
%TO.N,/BA2*%
X134959000Y-133626000D03*
%TO.P,P1,40,BA1*%
%TO.N,/BA1*%
X132459000Y-133626000D03*
%TO.P,P1,41,BA0*%
%TO.N,/BA0*%
X129959000Y-133626000D03*
%TO.P,P1,42,A15*%
%TO.N,/A15*%
X127459000Y-133626000D03*
%TO.P,P1,43,A14*%
%TO.N,/A14*%
X124959000Y-133626000D03*
%TO.P,P1,44,A13*%
%TO.N,/A13*%
X122459000Y-133626000D03*
%TO.P,P1,45,A12*%
%TO.N,/A12*%
X119959000Y-133626000D03*
D19*
%TO.P,P1,46,GND*%
%TO.N,/GND*%
X117084000Y-133626000D03*
%TD*%
D10*
%TO.P,R2,1*%
%TO.N,/VCC*%
X91137000Y-76067000D03*
%TO.P,R2,2*%
%TO.N,/Wire6*%
X101837000Y-76067000D03*
%TD*%
D20*
%TO.N,/GND*%
X102674600Y-88368300D03*
X147812100Y-71039400D03*
X111391300Y-93141300D03*
%TO.N,/VCC*%
X172741300Y-93924000D03*
X114950800Y-113828600D03*
X97829200Y-110637800D03*
X172959000Y-129328400D03*
%TO.N,/D0*%
X112324700Y-110336800D03*
X123371500Y-122118700D03*
X156374700Y-128544500D03*
X155743700Y-122143000D03*
X175718000Y-95849300D03*
%TO.N,/D7*%
X158781600Y-116632200D03*
X161293300Y-91389000D03*
X187047400Y-84892100D03*
%TO.N,/D6*%
X154580000Y-110602300D03*
X152357100Y-118268700D03*
%TO.N,/D5*%
X150944700Y-117356000D03*
%TO.N,/D4*%
X149822900Y-118921800D03*
X181554600Y-101549000D03*
X180873800Y-112546100D03*
%TO.N,/D3*%
X173921500Y-127792400D03*
X169983300Y-77220000D03*
X105820600Y-115915200D03*
X122370000Y-123696000D03*
%TO.N,/D2*%
X164587200Y-83769000D03*
X156183300Y-108205600D03*
X105426400Y-112387700D03*
X163103500Y-104245600D03*
X117299000Y-115555100D03*
X158651200Y-129519000D03*
X155864100Y-115477900D03*
%TO.N,/D1*%
X155662400Y-129246600D03*
X165529100Y-113631900D03*
X153302100Y-113010900D03*
X154483700Y-121376300D03*
X168432200Y-79238100D03*
X122470000Y-121376300D03*
X113050800Y-111068100D03*
%TO.N,/A1*%
X160594200Y-127943200D03*
X160842600Y-89777100D03*
X155402500Y-81341200D03*
X151795900Y-70103300D03*
X127265500Y-111038000D03*
X133526200Y-126019000D03*
X160207200Y-82589900D03*
%TO.N,/A2*%
X133939600Y-127522300D03*
X127020900Y-109768000D03*
X158314600Y-95172600D03*
X158411000Y-72244600D03*
X160805400Y-96318500D03*
X161259600Y-127194200D03*
%TO.N,/A3*%
X124874300Y-108782800D03*
X142001300Y-123841500D03*
X159656500Y-72847000D03*
X158038200Y-99151000D03*
X130642700Y-123012500D03*
X160233300Y-123493300D03*
X139959000Y-129348400D03*
%TO.N,/A4*%
X122612500Y-70531200D03*
X160754300Y-72918800D03*
X130642700Y-125813100D03*
X159740600Y-101879600D03*
X126068600Y-107228000D03*
X131813100Y-106537900D03*
%TO.N,/A5*%
X139556400Y-78705400D03*
X158115900Y-127194200D03*
X134104500Y-67350500D03*
X124414000Y-126349500D03*
X157082200Y-108829500D03*
X133002600Y-72679000D03*
X118033500Y-105497100D03*
X144538000Y-127194200D03*
%TO.N,/A6*%
X114061400Y-99242300D03*
X122230500Y-69256300D03*
X125503600Y-105433900D03*
X128126900Y-109513500D03*
X133011300Y-129340500D03*
%TO.N,/A7*%
X123339700Y-104328500D03*
X168577500Y-97873200D03*
X130469800Y-97927300D03*
X130019800Y-129347300D03*
X126993600Y-68407600D03*
X125754100Y-103983600D03*
X131565700Y-103284200D03*
%TO.N,/A8*%
X153850700Y-103787500D03*
X128660000Y-129505200D03*
X123453800Y-106485500D03*
X129381700Y-67490100D03*
%TO.N,/A9*%
X125874000Y-67609300D03*
X126039100Y-129401500D03*
X141376400Y-103063800D03*
X123524000Y-101003800D03*
X139926100Y-102549400D03*
X127902500Y-98771300D03*
%TO.N,/A10*%
X127848600Y-95798000D03*
X125319000Y-95204100D03*
X123647400Y-102071100D03*
X129022400Y-100058900D03*
X124227700Y-129349800D03*
X125516900Y-69036500D03*
%TO.N,/A11*%
X126797300Y-92039400D03*
X128129200Y-69658200D03*
X159333100Y-120410400D03*
%TO.N,/A12*%
X168345900Y-116629300D03*
X123490100Y-116751000D03*
X114017200Y-93258000D03*
X111524600Y-97892000D03*
X111163800Y-103142400D03*
%TO.N,/A13*%
X136132000Y-112456000D03*
X121751600Y-92235300D03*
X123696800Y-113663000D03*
X135946900Y-110435000D03*
%TO.N,/A14*%
X125486100Y-115422500D03*
X123639700Y-90180400D03*
X139425600Y-112516400D03*
%TO.N,/A0*%
X147471500Y-67531100D03*
X143604400Y-86659900D03*
X148147300Y-129254400D03*
X148589700Y-104789700D03*
X140310200Y-89580300D03*
%TO.N,/BA0*%
X166443300Y-92558300D03*
X132323200Y-117279500D03*
X167346900Y-117406500D03*
%TO.N,/BA1*%
X111500000Y-91903100D03*
X107780200Y-97793900D03*
X113317400Y-103370800D03*
%TO.N,/BA2*%
X131842700Y-86801900D03*
%TO.N,/BA4*%
X118041300Y-85469900D03*
X120175200Y-70060900D03*
X138636800Y-69203300D03*
X106701300Y-91911700D03*
%TO.N,/BA5*%
X139295300Y-81382000D03*
X137400400Y-73997200D03*
%TO.N,/BA7*%
X142001700Y-71552500D03*
X135762300Y-71728800D03*
%TO.N,/Wire1*%
X96336000Y-96857600D03*
%TO.N,/Bottom.CART*%
X149193400Y-96569000D03*
X129456600Y-77438300D03*
%TO.N,/Wire4*%
X95068800Y-94609600D03*
%TO.N,/Wire3*%
X96069100Y-94341300D03*
%TO.N,/U7.OE*%
X94589900Y-95545200D03*
X132115600Y-90954100D03*
X117600000Y-98097100D03*
X138446600Y-90310800D03*
X144534400Y-86175500D03*
X176698900Y-90003900D03*
%TO.N,/Wire2*%
X136097800Y-92698900D03*
X119211400Y-91058300D03*
X97404300Y-95057200D03*
%TO.N,/Reset*%
X93998600Y-102557300D03*
X182987900Y-125734700D03*
X181576100Y-68842900D03*
X122619600Y-124895500D03*
%TO.N,/SYS_CLK*%
X101452400Y-100878000D03*
X117578600Y-107992900D03*
X158048800Y-112732700D03*
X151130400Y-107339900D03*
X166070300Y-112732700D03*
%TO.N,/U5.D0*%
X111383900Y-118956500D03*
X174979300Y-103965700D03*
X94459100Y-105958000D03*
X174448100Y-116772200D03*
X179437600Y-105330100D03*
%TO.N,/U5.D1*%
X135790300Y-124378100D03*
X163859400Y-85951200D03*
X97062500Y-106834200D03*
X164018500Y-124276900D03*
%TO.N,/U5.D2*%
X134513300Y-71349800D03*
X135637900Y-69928500D03*
X121852500Y-73673900D03*
X95634300Y-108498000D03*
%TO.N,/U5.D3*%
X120992600Y-87600300D03*
X149789500Y-89898900D03*
X149950700Y-76572400D03*
X96577800Y-107998800D03*
%TO.N,/U5.D4*%
X124019500Y-124244300D03*
X96135500Y-111305700D03*
%TO.N,/U5.D5*%
X176061400Y-116459300D03*
X96317500Y-112351800D03*
X110653600Y-120176700D03*
X182031600Y-107942900D03*
X174936300Y-107942900D03*
X179502700Y-79453900D03*
%TO.N,/U5.D6*%
X123370200Y-123479100D03*
X96808000Y-115903600D03*
X184184500Y-115468700D03*
%TO.N,/U5.D7*%
X112585100Y-119416700D03*
X184177200Y-113369900D03*
X97786500Y-112397100D03*
%TO.N,/IRQ*%
X149501100Y-129335900D03*
X149955600Y-68456400D03*
%TO.N,/Read*%
X149643500Y-99009000D03*
X149193400Y-94330000D03*
X161214100Y-129588500D03*
X160645900Y-68945000D03*
%TO.N,/CIC_1*%
X164210500Y-129237100D03*
X163698800Y-69075700D03*
%TO.N,/CIC_7*%
X169421400Y-67503600D03*
X167214500Y-128766300D03*
%TO.N,/Write*%
X161644000Y-98257400D03*
%TO.N,/A15*%
X129614800Y-101304700D03*
X136771800Y-99109000D03*
X124916300Y-103205800D03*
%TO.N,/Top.CART*%
X139930300Y-92238000D03*
X141728700Y-86781500D03*
X150516800Y-87733400D03*
%TO.N,/LS30.OUT*%
X127560500Y-74756900D03*
%TO.N,/U6.OE*%
X172532900Y-108041400D03*
X163142200Y-108612700D03*
X176039300Y-119673700D03*
X163103500Y-99972000D03*
X138630300Y-105825200D03*
%TO.N,/U8.E*%
X132335300Y-88702300D03*
%TO.N,/U5.E*%
X136975400Y-123202800D03*
%TO.N,/U8{slash}U5.CP*%
X137188200Y-108662300D03*
%TO.N,Net-(U5-Pad19)*%
X187769700Y-120168500D03*
X181447100Y-115021300D03*
%TD*%
D21*
%TO.N,/GND*%
X107616800Y-73757200D02*
X107616800Y-76688800D01*
X115764800Y-74887000D02*
X115764800Y-69325200D01*
X197102800Y-72364200D02*
X198403000Y-71064000D01*
X100089300Y-85783000D02*
X102674600Y-88368300D01*
X110485200Y-79557200D02*
X111094600Y-79557200D01*
X109051000Y-90801000D02*
X111391300Y-93141300D01*
X142238000Y-90091900D02*
X142238000Y-90188900D01*
X144932000Y-84935100D02*
X145434600Y-85437700D01*
X198403000Y-99009000D02*
X198403000Y-97708900D01*
X116915000Y-75858000D02*
X115944000Y-74887000D01*
X112334200Y-123437000D02*
X117084000Y-128186800D01*
X197102800Y-96408700D02*
X197102800Y-72364200D01*
X111687000Y-123437000D02*
X112334200Y-123437000D01*
X109051000Y-83923000D02*
X110485200Y-82488800D01*
X144932000Y-83635000D02*
X144932000Y-84935100D01*
X117368000Y-67722000D02*
X116943000Y-68147000D01*
X117084000Y-128186800D02*
X117084000Y-133626000D01*
X147721500Y-71039500D02*
X147812100Y-71039500D01*
X171815400Y-75483400D02*
X177535300Y-69763500D01*
X99221000Y-85783000D02*
X99221000Y-84632600D01*
X109051000Y-83923000D02*
X109051000Y-88368300D01*
X109051000Y-88368300D02*
X102674600Y-88368300D01*
X183098400Y-69763500D02*
X184398900Y-71064000D01*
X110485200Y-82488800D02*
X110485200Y-79557200D01*
X109051000Y-88368300D02*
X109051000Y-90801000D01*
X117368000Y-63196000D02*
X117368000Y-67722000D01*
X177535300Y-69763500D02*
X183098400Y-69763500D01*
X92777800Y-90550200D02*
X92777800Y-112940200D01*
X185699000Y-69763900D02*
X185992000Y-69470900D01*
X185699000Y-71064000D02*
X184398900Y-71064000D01*
X145434600Y-86895300D02*
X142238000Y-90091900D01*
X144671900Y-108782900D02*
X144872000Y-108983000D01*
X198403000Y-99009000D02*
X199703100Y-99009000D01*
X200878300Y-100184200D02*
X199703100Y-99009000D01*
X109051000Y-72323000D02*
X107616800Y-73757200D01*
X107616800Y-76688800D02*
X109051000Y-78123000D01*
X98733400Y-84594600D02*
X92777800Y-90550200D01*
X99183000Y-78634000D02*
X99183000Y-84594600D01*
X185699000Y-71064000D02*
X185699000Y-69763900D01*
X115764800Y-69325200D02*
X116943000Y-68147000D01*
X142238000Y-91489000D02*
X144671900Y-93922900D01*
X111094600Y-79557200D02*
X115764800Y-74887000D01*
X142238000Y-91489000D02*
X142238000Y-90188900D01*
X145434600Y-85437700D02*
X145434600Y-86895300D01*
X110485200Y-79557200D02*
X109051000Y-78123000D01*
X99183000Y-84594600D02*
X98733400Y-84594600D01*
X115944000Y-74887000D02*
X115764800Y-74887000D01*
X203420000Y-116660000D02*
X200878300Y-114118300D01*
X99221000Y-84632600D02*
X99183000Y-84594600D01*
X200878300Y-114118300D02*
X200878300Y-100184200D01*
X144671900Y-93922900D02*
X144671900Y-108782900D01*
X99221000Y-85783000D02*
X100089300Y-85783000D01*
X92777800Y-112940200D02*
X86012000Y-119706000D01*
X171873000Y-81011000D02*
X171815400Y-80953400D01*
X198403000Y-97708900D02*
X197102800Y-96408700D01*
X147812100Y-71039500D02*
X147812100Y-71039400D01*
X145256000Y-73505000D02*
X147721500Y-71039500D01*
X171815400Y-80953400D02*
X171815400Y-75483400D01*
X185992000Y-69470900D02*
X185992000Y-65954000D01*
D22*
%TO.N,/Switch*%
X107428000Y-66413000D02*
X108530900Y-65310100D01*
X111084700Y-65310100D02*
X111706600Y-65932000D01*
X111706600Y-72367400D02*
X109051000Y-75023000D01*
X108530900Y-65310100D02*
X111084700Y-65310100D01*
X111706600Y-65932000D02*
X111706600Y-72367400D01*
D21*
%TO.N,/VCC*%
X134618000Y-114349000D02*
X135918100Y-114349000D01*
X97829200Y-110992400D02*
X105782400Y-118945600D01*
X175634000Y-78250000D02*
X175634000Y-78923200D01*
X175634000Y-78923200D02*
X171872000Y-82685200D01*
X106137000Y-118945600D02*
X106137000Y-123437000D01*
X86012000Y-114156000D02*
X91977700Y-108190300D01*
X172959000Y-129328400D02*
X172959000Y-125688900D01*
X178079000Y-93924000D02*
X176778900Y-93924000D01*
X171632800Y-95032500D02*
X171632800Y-116024800D01*
X143755800Y-115649200D02*
X137218300Y-115649200D01*
X171632800Y-116024800D02*
X172277000Y-116669000D01*
X171873000Y-86561000D02*
X171873000Y-82686300D01*
X170683800Y-81497100D02*
X170683800Y-79505900D01*
X106137000Y-118945600D02*
X111254000Y-113828600D01*
X92430400Y-77360400D02*
X91137000Y-76067000D01*
X91977700Y-86235700D02*
X92430400Y-85783000D01*
X105782400Y-118945600D02*
X106137000Y-118945600D01*
X172959000Y-133626000D02*
X172959000Y-129328400D01*
X180198800Y-65954000D02*
X180442000Y-65954000D01*
X170683800Y-79505900D02*
X170883400Y-79306300D01*
X137218300Y-115649200D02*
X135918100Y-114349000D01*
X172277000Y-116669000D02*
X172277000Y-117367100D01*
X171873000Y-86561000D02*
X171873000Y-89018100D01*
X91137000Y-76067000D02*
X91137000Y-73554000D01*
X172277000Y-117367100D02*
X176778900Y-121869000D01*
X170883400Y-75269400D02*
X180198800Y-65954000D01*
X118068100Y-72372100D02*
X118068100Y-80254900D01*
X111254000Y-113828600D02*
X114950800Y-113828600D01*
X170883400Y-79306300D02*
X170883400Y-75269400D01*
X91977700Y-108190300D02*
X91977700Y-86235700D01*
X171873000Y-82686300D02*
X171872000Y-82685200D01*
X118068100Y-80254900D02*
X116915000Y-81408000D01*
X92430400Y-85783000D02*
X92430400Y-77360400D01*
X93671000Y-85783000D02*
X92430400Y-85783000D01*
X171872000Y-82685200D02*
X170683800Y-81497100D01*
X116943000Y-71247000D02*
X118068100Y-72372100D01*
X172741300Y-93924000D02*
X171632800Y-95032500D01*
X144872000Y-114533000D02*
X143755800Y-115649200D01*
X97829200Y-110637800D02*
X97829200Y-110992400D01*
X178079000Y-121869000D02*
X176778900Y-121869000D01*
X171873000Y-89018100D02*
X176778900Y-93924000D01*
X172959000Y-125688900D02*
X176778900Y-121869000D01*
D22*
%TO.N,/Wire5*%
X93633000Y-73554000D02*
X93633000Y-78634000D01*
X93633000Y-73554000D02*
X101837000Y-73554000D01*
X91137000Y-70969000D02*
X93633000Y-73465000D01*
X93633000Y-73465000D02*
X93633000Y-73554000D01*
D21*
%TO.N,/TopRear.VCC*%
X173166900Y-67371100D02*
X173243000Y-67371100D01*
X173243000Y-63196000D02*
X173243000Y-67371100D01*
X172988000Y-67550000D02*
X173166900Y-67371100D01*
D22*
%TO.N,/D0*%
X168797100Y-88928400D02*
X175718000Y-95849300D01*
X112324700Y-110336800D02*
X114410300Y-110336800D01*
X155743700Y-122143000D02*
X156374700Y-122774000D01*
X168797100Y-88849000D02*
X168797100Y-88928400D01*
X178079000Y-116789000D02*
X178079000Y-115663900D01*
X114410300Y-110336800D02*
X123371500Y-119298000D01*
X177845800Y-115663900D02*
X178079000Y-115663900D01*
X156374700Y-122774000D02*
X156374700Y-128544500D01*
X175718000Y-113536100D02*
X177845800Y-115663900D01*
X123371500Y-119298000D02*
X123371500Y-122118700D01*
X175718000Y-95849300D02*
X175718000Y-113536100D01*
X167672000Y-88849000D02*
X168797100Y-88849000D01*
%TO.N,/Wire6*%
X110628000Y-66413000D02*
X101837000Y-75204000D01*
X101837000Y-75204000D02*
X101837000Y-76067000D01*
%TO.N,/D7*%
X158777600Y-116628200D02*
X158781600Y-116632200D01*
X154020200Y-102819000D02*
X158777600Y-107576400D01*
X183208800Y-113455000D02*
X185417700Y-115663900D01*
X158608000Y-116805800D02*
X158608000Y-126334400D01*
X152241800Y-92514100D02*
X151306800Y-93449100D01*
X186635200Y-87683800D02*
X185231400Y-87683800D01*
X185417700Y-115663900D02*
X185699000Y-115663900D01*
X151306800Y-93449100D02*
X151306800Y-102021400D01*
X159419000Y-129085900D02*
X159959000Y-129625900D01*
X161792000Y-78250000D02*
X161568400Y-78473600D01*
X158608000Y-126334400D02*
X159419000Y-127145400D01*
X187047400Y-84892100D02*
X187047400Y-87271600D01*
X152432000Y-91389000D02*
X152432000Y-92514100D01*
X152432000Y-92514100D02*
X152241800Y-92514100D01*
X158777600Y-107576400D02*
X158777600Y-116628200D01*
X151306800Y-102021400D02*
X152104400Y-102819000D01*
X187047400Y-87271600D02*
X186635200Y-87683800D01*
X187047400Y-87271600D02*
X188619800Y-88844000D01*
X159419000Y-127145400D02*
X159419000Y-129085900D01*
X159959000Y-133626000D02*
X159959000Y-129625900D01*
X161568400Y-91113900D02*
X161293300Y-91389000D01*
X185699000Y-116789000D02*
X185699000Y-115663900D01*
X158781600Y-116632200D02*
X158608000Y-116805800D01*
X183208800Y-89706400D02*
X183208800Y-113455000D01*
X152104400Y-102819000D02*
X154020200Y-102819000D01*
X188619800Y-88844000D02*
X190783000Y-88844000D01*
X161568400Y-78473600D02*
X161568400Y-91113900D01*
X185231400Y-87683800D02*
X183208800Y-89706400D01*
%TO.N,/Top.D7*%
X161792000Y-67550000D02*
X161438100Y-67196100D01*
X161438100Y-67196100D02*
X160243000Y-67196100D01*
X160243000Y-63196000D02*
X160243000Y-67196100D01*
%TO.N,/D6*%
X154103600Y-111078700D02*
X154580000Y-110602300D01*
X184109000Y-109227100D02*
X185465800Y-110583900D01*
X152428700Y-118340300D02*
X152966500Y-118340300D01*
X152428700Y-118340300D02*
X154027200Y-116741800D01*
X150405300Y-105909400D02*
X150836100Y-105478600D01*
X150405300Y-108737600D02*
X150405300Y-105909400D01*
X189189600Y-91312700D02*
X189189600Y-94203600D01*
X191118900Y-90114000D02*
X190388300Y-90114000D01*
X154027200Y-111078700D02*
X154103600Y-111078700D01*
X152432000Y-88849000D02*
X152432000Y-89974100D01*
X156940700Y-122314500D02*
X156940700Y-127681000D01*
X188344000Y-95049200D02*
X187975700Y-95049200D01*
X152432000Y-88086200D02*
X152432000Y-87723900D01*
X190783000Y-87429100D02*
X191020300Y-87429100D01*
X187975700Y-95049200D02*
X184109000Y-98915900D01*
X153272600Y-110324100D02*
X151991800Y-110324100D01*
X152713300Y-87723900D02*
X152432000Y-87723900D01*
X184109000Y-98915900D02*
X184109000Y-109227100D01*
X154027200Y-116741800D02*
X154027200Y-111078700D01*
X185699000Y-111709000D02*
X185699000Y-110583900D01*
X156940700Y-127681000D02*
X157459000Y-128199300D01*
X156669000Y-78250000D02*
X156669000Y-83768200D01*
X152222700Y-89974100D02*
X152432000Y-89974100D01*
X189189600Y-94203600D02*
X188344000Y-95049200D01*
X151991800Y-110324100D02*
X150405300Y-108737600D01*
X190783000Y-86304000D02*
X190783000Y-87429100D01*
X157459000Y-133626000D02*
X157459000Y-129625900D01*
X157459000Y-128199300D02*
X157459000Y-129625900D01*
X152428700Y-118340300D02*
X152357100Y-118268700D01*
X191919300Y-88328100D02*
X191919300Y-89313600D01*
X154027200Y-111078700D02*
X153272600Y-110324100D01*
X150836100Y-91360700D02*
X152222700Y-89974100D01*
X191020300Y-87429100D02*
X191919300Y-88328100D01*
X156669000Y-83768200D02*
X152713300Y-87723900D01*
X150836100Y-105478600D02*
X150836100Y-91360700D01*
X152432000Y-88849000D02*
X152432000Y-88086200D01*
X190388300Y-90114000D02*
X189189600Y-91312700D01*
X185465800Y-110583900D02*
X185699000Y-110583900D01*
X191919300Y-89313600D02*
X191118900Y-90114000D01*
X152966500Y-118340300D02*
X156940700Y-122314500D01*
%TO.N,/Top.D6*%
X157743000Y-63196000D02*
X157743000Y-67196100D01*
X157022900Y-67196100D02*
X157743000Y-67196100D01*
X156669000Y-67550000D02*
X157022900Y-67196100D01*
%TO.N,/D5*%
X149955100Y-109274300D02*
X149955100Y-105723000D01*
X185699000Y-106629000D02*
X186824100Y-106629000D01*
X152432000Y-85183900D02*
X152713300Y-85183900D01*
X189160100Y-97826000D02*
X192819500Y-94166600D01*
X150514600Y-88828600D02*
X152432000Y-86911200D01*
X154937300Y-129604200D02*
X154959000Y-129625900D01*
X154959000Y-133626000D02*
X154959000Y-129625900D01*
X150944700Y-120424700D02*
X154937300Y-124417300D01*
X189160100Y-104293000D02*
X189160100Y-97826000D01*
X150944700Y-117356000D02*
X150944700Y-110263900D01*
X192819500Y-81566800D02*
X191061800Y-79809100D01*
X150385900Y-105292200D02*
X150385900Y-90328000D01*
X191061800Y-79809100D02*
X190783000Y-79809100D01*
X190783000Y-78684000D02*
X190783000Y-79809100D01*
X154136000Y-83761200D02*
X154136000Y-78250000D01*
X150944700Y-110263900D02*
X149955100Y-109274300D01*
X149955100Y-105723000D02*
X150385900Y-105292200D01*
X152713300Y-85183900D02*
X154136000Y-83761200D01*
X192819500Y-94166600D02*
X192819500Y-81566800D01*
X186824100Y-106629000D02*
X189160100Y-104293000D01*
X152432000Y-86911200D02*
X152432000Y-86309000D01*
X152432000Y-86309000D02*
X152432000Y-85183900D01*
X154937300Y-124417300D02*
X154937300Y-129604200D01*
X150514600Y-90199300D02*
X150514600Y-88828600D01*
X150385900Y-90328000D02*
X150514600Y-90199300D01*
X150944700Y-117356000D02*
X150944700Y-120424700D01*
%TO.N,/Top.D5*%
X155243000Y-66443000D02*
X155243000Y-63196000D01*
X154136000Y-67550000D02*
X155243000Y-66443000D01*
%TO.N,/D4*%
X152150700Y-82643900D02*
X151208800Y-81702000D01*
X178401100Y-87574000D02*
X181554600Y-90727500D01*
X188401800Y-76144000D02*
X187276600Y-75018800D01*
X176953800Y-86776200D02*
X177751600Y-87574000D01*
X149822900Y-120004000D02*
X149822900Y-118921800D01*
X190783000Y-76144000D02*
X188401800Y-76144000D01*
X151208800Y-81702000D02*
X151208800Y-78644200D01*
X152432000Y-82643900D02*
X152150700Y-82643900D01*
X152459000Y-122640100D02*
X149822900Y-120004000D01*
X181554600Y-101549000D02*
X180873800Y-102229800D01*
X180873800Y-102229800D02*
X180873800Y-112546100D01*
X187276600Y-75018800D02*
X177574100Y-75018800D01*
X181554600Y-90727500D02*
X181554600Y-101549000D01*
X151208800Y-78644200D02*
X151603000Y-78250000D01*
X177574100Y-75018800D02*
X176953800Y-75639100D01*
X177751600Y-87574000D02*
X178401100Y-87574000D01*
X152432000Y-83769000D02*
X152432000Y-82643900D01*
X152459000Y-133626000D02*
X152459000Y-122640100D01*
X176953800Y-75639100D02*
X176953800Y-86776200D01*
%TO.N,/Top.D4*%
X152736178Y-66416822D02*
X152736178Y-63196000D01*
X151603000Y-67550000D02*
X152736178Y-66416822D01*
%TO.N,/D3*%
X177727900Y-105359000D02*
X178410900Y-105359000D01*
X170033600Y-77220000D02*
X169983300Y-77220000D01*
X178410900Y-105359000D02*
X179233800Y-106181900D01*
X178482200Y-120599000D02*
X179272100Y-121388900D01*
X179272100Y-121388900D02*
X179272100Y-122441800D01*
X176922600Y-95478700D02*
X176922600Y-99500700D01*
X115234700Y-113071000D02*
X115993400Y-113829700D01*
X177699100Y-118059000D02*
X176953700Y-118804400D01*
X178079000Y-102674100D02*
X177807600Y-102674100D01*
X179272100Y-122441800D02*
X173921500Y-127792400D01*
X170033600Y-74955300D02*
X170033600Y-77220000D01*
X176922600Y-99500700D02*
X177845800Y-100423900D01*
X199568200Y-74135000D02*
X199568200Y-70622200D01*
X170033600Y-77220000D02*
X170033600Y-88589700D01*
X105820600Y-115915200D02*
X108664800Y-113071000D01*
X108664800Y-113071000D02*
X115234700Y-113071000D01*
X198396000Y-69450000D02*
X192610500Y-69450000D01*
X178079000Y-101549000D02*
X178079000Y-102674100D01*
X179233800Y-117292200D02*
X178467000Y-118059000D01*
X198403000Y-75018900D02*
X198684300Y-75018900D01*
X177845800Y-100423900D02*
X178079000Y-100423900D01*
X176953700Y-118804400D02*
X176953700Y-119872000D01*
X177680700Y-120599000D02*
X178482200Y-120599000D01*
X115993400Y-117319400D02*
X122370000Y-123696000D01*
X198684300Y-75018900D02*
X199568200Y-74135000D01*
X176953700Y-119872000D02*
X177680700Y-120599000D01*
X198403000Y-76144000D02*
X198403000Y-75018900D01*
X176922500Y-103559200D02*
X176922500Y-104553600D01*
X115993400Y-113829700D02*
X115993400Y-117319400D01*
X178079000Y-101549000D02*
X178079000Y-100423900D01*
X177807600Y-102674100D02*
X176922500Y-103559200D01*
X192610500Y-69450000D02*
X187662400Y-64501900D01*
X179233800Y-106181900D02*
X179233800Y-117292200D01*
X187662400Y-64501900D02*
X180487000Y-64501900D01*
X180487000Y-64501900D02*
X170033600Y-74955300D01*
X178467000Y-118059000D02*
X177699100Y-118059000D01*
X176922500Y-104553600D02*
X177727900Y-105359000D01*
X170033600Y-88589700D02*
X176922600Y-95478700D01*
X199568200Y-70622200D02*
X198396000Y-69450000D01*
%TO.N,/D2*%
X155864100Y-115477900D02*
X155864100Y-108524800D01*
X155864100Y-108524800D02*
X156183300Y-108205600D01*
X115188000Y-112387700D02*
X105426400Y-112387700D01*
X164587200Y-83769000D02*
X164587200Y-87100500D01*
X158651200Y-128754800D02*
X158651200Y-129519000D01*
X157390800Y-122128100D02*
X157390800Y-127494400D01*
X157390800Y-127494400D02*
X158651200Y-128754800D01*
X163438600Y-88249100D02*
X163438600Y-99234400D01*
X164587200Y-83769000D02*
X164587200Y-78493200D01*
X155864100Y-115477900D02*
X155864100Y-120601400D01*
X164587200Y-87100500D02*
X163438600Y-88249100D01*
X117299000Y-114498700D02*
X115188000Y-112387700D01*
X163438600Y-99234400D02*
X163828700Y-99624500D01*
X163828700Y-101498600D02*
X163378600Y-101948700D01*
X163378600Y-101948700D02*
X163378600Y-103970500D01*
X163378600Y-103970500D02*
X163103500Y-104245600D01*
X164587200Y-78493200D02*
X164344000Y-78250000D01*
X117299000Y-115555100D02*
X117299000Y-114498700D01*
X163828700Y-99624500D02*
X163828700Y-101498600D01*
X155864100Y-120601400D02*
X157390800Y-122128100D01*
%TO.N,/D1*%
X155590400Y-129174600D02*
X155662400Y-129246600D01*
X155590400Y-124086700D02*
X155590400Y-129174600D01*
X154483700Y-121376300D02*
X154483700Y-122980000D01*
X153302100Y-113010900D02*
X153561000Y-113269800D01*
X165239000Y-98488400D02*
X165629100Y-98878500D01*
X167672000Y-86562100D02*
X165239000Y-88995100D01*
X165629100Y-102244600D02*
X165332100Y-102541600D01*
X154439100Y-121376300D02*
X154483700Y-121376300D01*
X113050800Y-111068100D02*
X114505000Y-111068100D01*
X167672000Y-85183900D02*
X167953300Y-85183900D01*
X154483700Y-122980000D02*
X155590400Y-124086700D01*
X167672000Y-86309000D02*
X167672000Y-86562100D01*
X168797200Y-84340000D02*
X168797200Y-79603100D01*
X165239000Y-88995100D02*
X165239000Y-98488400D01*
X151632000Y-117968400D02*
X151632000Y-118569200D01*
X151632000Y-118569200D02*
X154439100Y-121376300D01*
X165629100Y-98878500D02*
X165629100Y-102244600D01*
X165332100Y-113434900D02*
X165529100Y-113631900D01*
X114505000Y-111068100D02*
X122470000Y-119033100D01*
X153561000Y-116039400D02*
X151632000Y-117968400D01*
X168797200Y-79603100D02*
X168432200Y-79238100D01*
X165332100Y-102541600D02*
X165332100Y-113434900D01*
X153561000Y-113269800D02*
X153561000Y-116039400D01*
X122470000Y-119033100D02*
X122470000Y-121376300D01*
X167672000Y-86309000D02*
X167672000Y-85183900D01*
X167953300Y-85183900D02*
X168797200Y-84340000D01*
%TO.N,/A1*%
X160578000Y-109697700D02*
X160958500Y-110078200D01*
X155402500Y-81341200D02*
X155402500Y-73709900D01*
X160061400Y-90558300D02*
X160061400Y-96711000D01*
X160127900Y-106380300D02*
X160578000Y-106830400D01*
X160842600Y-89777100D02*
X160207200Y-89141700D01*
X133376700Y-117307300D02*
X133376700Y-125869500D01*
X155402500Y-73709900D02*
X151795900Y-70103300D01*
X160578000Y-106830400D02*
X160578000Y-109697700D01*
X127265500Y-111196100D02*
X133376700Y-117307300D01*
X160061400Y-96711000D02*
X160468300Y-97117900D01*
X127265500Y-111038000D02*
X127265500Y-111196100D01*
X133376700Y-125869500D02*
X133526200Y-126019000D01*
X160958500Y-124381400D02*
X160532100Y-124807800D01*
X160207200Y-89141700D02*
X160207200Y-82589900D01*
X160532100Y-124807800D02*
X160532100Y-127881100D01*
X160532100Y-127881100D02*
X160594200Y-127943200D01*
X160958500Y-110078200D02*
X160958500Y-124381400D01*
X160842600Y-89777100D02*
X160061400Y-90558300D01*
X160468300Y-102672400D02*
X160127900Y-103012800D01*
X160468300Y-97117900D02*
X160468300Y-102672400D01*
X160127900Y-103012800D02*
X160127900Y-106380300D01*
%TO.N,/A2*%
X160578000Y-103199300D02*
X160578000Y-105291900D01*
X160918400Y-102858900D02*
X160578000Y-103199300D01*
X127020900Y-109768000D02*
X128791300Y-111538400D01*
X160578000Y-105291900D02*
X161028100Y-105742000D01*
X161408600Y-127045200D02*
X161259600Y-127194200D01*
X128791300Y-111538400D02*
X128791300Y-112085300D01*
X161028100Y-105742000D02*
X161028100Y-109511200D01*
X158224700Y-72430900D02*
X158224700Y-95082700D01*
X160918400Y-96431500D02*
X160918400Y-102858900D01*
X158224700Y-95082700D02*
X158314600Y-95172600D01*
X134251400Y-127210500D02*
X133939600Y-127522300D01*
X133826800Y-117120800D02*
X133826800Y-124713200D01*
X161408600Y-109891700D02*
X161408600Y-127045200D01*
X128791300Y-112085300D02*
X133826800Y-117120800D01*
X134251400Y-125137800D02*
X134251400Y-127210500D01*
X158411000Y-72244600D02*
X158224700Y-72430900D01*
X133826800Y-124713200D02*
X134251400Y-125137800D01*
X160805400Y-96318500D02*
X160918400Y-96431500D01*
X161028100Y-109511200D02*
X161408600Y-109891700D01*
%TO.N,/A3*%
X159026300Y-81647400D02*
X160215200Y-80458500D01*
X130642700Y-115440500D02*
X130642700Y-123012500D01*
X158038200Y-104927200D02*
X160127900Y-107016900D01*
X159026300Y-94858800D02*
X159026300Y-81647400D01*
X124874300Y-108782800D02*
X124874300Y-109672100D01*
X124874300Y-109672100D02*
X130642700Y-115440500D01*
X160127900Y-109884200D02*
X160508400Y-110264700D01*
X142001300Y-127306100D02*
X142001300Y-123841500D01*
X158038200Y-99151000D02*
X158038200Y-104927200D01*
X158038200Y-99151000D02*
X159039700Y-98149500D01*
X160127900Y-107016900D02*
X160127900Y-109884200D01*
X159039700Y-94872200D02*
X159026300Y-94858800D01*
X159039700Y-98149500D02*
X159039700Y-94872200D01*
X160215200Y-80458500D02*
X160215200Y-73405700D01*
X160508400Y-110264700D02*
X160508400Y-123218200D01*
X160215200Y-73405700D02*
X159656500Y-72847000D01*
X160508400Y-123218200D02*
X160233300Y-123493300D01*
X139959000Y-129348400D02*
X142001300Y-127306100D01*
%TO.N,/A4*%
X124149200Y-108405000D02*
X125326200Y-107228000D01*
X127397100Y-100564900D02*
X120976800Y-94144600D01*
X160754300Y-80556100D02*
X160754300Y-72918800D01*
X159476400Y-81834000D02*
X160754300Y-80556100D01*
X124149200Y-109583600D02*
X124149200Y-108405000D01*
X129490200Y-104147700D02*
X129490200Y-103511100D01*
X123066400Y-70985100D02*
X122612500Y-70531200D01*
X129490200Y-103511100D02*
X127989400Y-102010300D01*
X129917600Y-115352000D02*
X124149200Y-109583600D01*
X130642700Y-125813100D02*
X129917600Y-125088000D01*
X127397100Y-100781500D02*
X127397100Y-100564900D01*
X159489800Y-101628800D02*
X159489800Y-94685700D01*
X120976800Y-94144600D02*
X120976800Y-89278500D01*
X127989400Y-101373800D02*
X127397100Y-100781500D01*
X129917600Y-125088000D02*
X129917600Y-115352000D01*
X131813100Y-106537900D02*
X131813100Y-106470600D01*
X131813100Y-106470600D02*
X129490200Y-104147700D01*
X159489800Y-94685700D02*
X159476400Y-94672300D01*
X127989400Y-102010300D02*
X127989400Y-101373800D01*
X120976800Y-89278500D02*
X123066400Y-87188900D01*
X159476400Y-94672300D02*
X159476400Y-81834000D01*
X125326200Y-107228000D02*
X126068600Y-107228000D01*
X123066400Y-87188900D02*
X123066400Y-70985100D01*
X159740600Y-101879600D02*
X159489800Y-101628800D01*
%TO.N,/A5*%
X146197200Y-105332400D02*
X146789300Y-105924500D01*
X139556400Y-78705400D02*
X138528900Y-79732900D01*
X138528900Y-81653100D02*
X139037100Y-82161300D01*
X139037100Y-82161300D02*
X141125200Y-82161300D01*
X144538000Y-118816300D02*
X144538000Y-127194200D01*
X145791300Y-81587800D02*
X146959900Y-82756400D01*
X157082200Y-108829500D02*
X157082200Y-121182800D01*
X138528900Y-79732900D02*
X138528900Y-81653100D01*
X124414000Y-126349500D02*
X125242500Y-125521000D01*
X141698700Y-81587800D02*
X145791300Y-81587800D01*
X157082200Y-121182800D02*
X158115900Y-122216500D01*
X120964200Y-108427800D02*
X118033500Y-105497100D01*
X146959900Y-88520100D02*
X146197200Y-89282800D01*
X134104500Y-67350500D02*
X133002600Y-68452400D01*
X141125200Y-82161300D02*
X141698700Y-81587800D01*
X120964200Y-112881000D02*
X120964200Y-108427800D01*
X125242500Y-125521000D02*
X125242500Y-117159300D01*
X147680400Y-115673900D02*
X144538000Y-118816300D01*
X146789300Y-105924500D02*
X146789300Y-111871900D01*
X133002600Y-68452400D02*
X133002600Y-72679000D01*
X146959900Y-82756400D02*
X146959900Y-88520100D01*
X125242500Y-117159300D02*
X120964200Y-112881000D01*
X147680400Y-112763000D02*
X147680400Y-115673900D01*
X158115900Y-122216500D02*
X158115900Y-127194200D01*
X146197200Y-89282800D02*
X146197200Y-105332400D01*
X146789300Y-111871900D02*
X147680400Y-112763000D01*
%TO.N,/A6*%
X125503600Y-105433900D02*
X128126900Y-108057200D01*
X128126900Y-110237400D02*
X129241400Y-111351900D01*
X121840000Y-69646800D02*
X121840000Y-72513800D01*
X122616300Y-73290100D02*
X122616300Y-87002400D01*
X129241400Y-111898800D02*
X134615100Y-117272500D01*
X120326700Y-89292000D02*
X119897700Y-89292000D01*
X118437400Y-90752300D02*
X118437400Y-98318500D01*
X118437400Y-98318500D02*
X117513600Y-99242300D01*
X129241400Y-111351900D02*
X129241400Y-111898800D01*
X117513600Y-99242300D02*
X114061400Y-99242300D01*
X133146900Y-129340500D02*
X133011300Y-129340500D01*
X128126900Y-109513500D02*
X128126900Y-110237400D01*
X121840000Y-72513800D02*
X122616300Y-73290100D01*
X122230500Y-69256300D02*
X121840000Y-69646800D01*
X128126900Y-108057200D02*
X128126900Y-109513500D01*
X134615100Y-124864900D02*
X134701500Y-124951300D01*
X122616300Y-87002400D02*
X120326700Y-89292000D01*
X134701500Y-127785900D02*
X133146900Y-129340500D01*
X119897700Y-89292000D02*
X118437400Y-90752300D01*
X134701500Y-124951300D02*
X134701500Y-127785900D01*
X134615100Y-117272500D02*
X134615100Y-124864900D01*
%TO.N,/A7*%
X167672000Y-109169000D02*
X167672000Y-108043900D01*
X131565700Y-99023200D02*
X130469800Y-97927300D01*
X130469800Y-97927300D02*
X130469800Y-97387500D01*
X167953300Y-108043900D02*
X168797200Y-107200000D01*
X129467500Y-115538500D02*
X129467500Y-128795000D01*
X124455900Y-105281800D02*
X125754100Y-103983600D01*
X124293000Y-105281800D02*
X124455900Y-105281800D01*
X126993600Y-68828500D02*
X126993600Y-68407600D01*
X125543700Y-70278400D02*
X126993600Y-68828500D01*
X131565700Y-103284200D02*
X131565700Y-99023200D01*
X123699100Y-109770100D02*
X129467500Y-115538500D01*
X124293000Y-105281800D02*
X124293000Y-107531600D01*
X129467500Y-128795000D02*
X130019800Y-129347300D01*
X130469800Y-97387500D02*
X125543700Y-92461400D01*
X123699100Y-108125500D02*
X123699100Y-109770100D01*
X168797200Y-107200000D02*
X168797200Y-98092900D01*
X123339700Y-104328500D02*
X124293000Y-105281800D01*
X124293000Y-107531600D02*
X123699100Y-108125500D01*
X125543700Y-92461400D02*
X125543700Y-70278400D01*
X168797200Y-98092900D02*
X168577500Y-97873200D01*
X167672000Y-108043900D02*
X167953300Y-108043900D01*
%TO.N,/A8*%
X129184700Y-85190700D02*
X131269400Y-85190700D01*
X131269400Y-85190700D02*
X132868700Y-86790000D01*
X123249000Y-110250200D02*
X123249000Y-106690300D01*
X129381700Y-73961200D02*
X128069900Y-75273000D01*
X128660000Y-129505200D02*
X128660000Y-115661200D01*
X139651000Y-98141500D02*
X142033400Y-100523900D01*
X142238000Y-101649000D02*
X142238000Y-100523900D01*
X132868700Y-86790000D02*
X132868700Y-86860600D01*
X153557100Y-106629000D02*
X153850700Y-106335400D01*
X152432000Y-106629000D02*
X153557100Y-106629000D01*
X142033400Y-100523900D02*
X142238000Y-100523900D01*
X129381700Y-67490100D02*
X129381700Y-73961200D01*
X128660000Y-115661200D02*
X123249000Y-110250200D01*
X128069900Y-75273000D02*
X128069900Y-84075900D01*
X123249000Y-106690300D02*
X123453800Y-106485500D01*
X139651000Y-93642900D02*
X139651000Y-98141500D01*
X153850700Y-106335400D02*
X153850700Y-103787500D01*
X128069900Y-84075900D02*
X129184700Y-85190700D01*
X132868700Y-86860600D02*
X139651000Y-93642900D01*
%TO.N,/A9*%
X127042900Y-128397700D02*
X126039100Y-129401500D01*
X127042900Y-115317300D02*
X127042900Y-128397700D01*
X124584900Y-95555500D02*
X127800700Y-98771300D01*
X123657700Y-101003800D02*
X124406400Y-101752500D01*
X123204200Y-102796200D02*
X122152700Y-103847700D01*
X124406400Y-102342600D02*
X123952800Y-102796200D01*
X122152700Y-110427100D02*
X127042900Y-115317300D01*
X123524000Y-101003800D02*
X123657700Y-101003800D01*
X127800700Y-98771300D02*
X127902500Y-98771300D01*
X141376400Y-103063800D02*
X140440500Y-103063800D01*
X125874000Y-67609300D02*
X124584900Y-68898400D01*
X123952800Y-102796200D02*
X123204200Y-102796200D01*
X124406400Y-101752500D02*
X124406400Y-102342600D01*
X122152700Y-103847700D02*
X122152700Y-110427100D01*
X124584900Y-68898400D02*
X124584900Y-95555500D01*
X140440500Y-103063800D02*
X139926100Y-102549400D01*
%TO.N,/A10*%
X125056800Y-69496600D02*
X125056800Y-94550500D01*
X126592800Y-115503800D02*
X121702600Y-110613600D01*
X125056800Y-94550500D02*
X125514700Y-95008400D01*
X123292800Y-102071100D02*
X123647400Y-102071100D01*
X125516900Y-69036500D02*
X125056800Y-69496600D01*
X127059000Y-95008400D02*
X127848600Y-95798000D01*
X121702600Y-103661300D02*
X123292800Y-102071100D01*
X121702600Y-110613600D02*
X121702600Y-103661300D01*
X126592800Y-126984700D02*
X126592800Y-115503800D01*
X124227700Y-129349800D02*
X126592800Y-126984700D01*
X125514700Y-95008400D02*
X127059000Y-95008400D01*
X125514700Y-95008400D02*
X125319000Y-95204100D01*
X127848600Y-95798000D02*
X129022400Y-96971800D01*
X129022400Y-96971800D02*
X129022400Y-100058900D01*
%TO.N,/A11*%
X126797300Y-70990100D02*
X128129200Y-69658200D01*
X153557100Y-101549000D02*
X153557100Y-101719300D01*
X159227700Y-110257200D02*
X159539000Y-110568500D01*
X159539000Y-110568500D02*
X159539000Y-120204500D01*
X152432000Y-101549000D02*
X153557100Y-101549000D01*
X126797300Y-92039400D02*
X126797300Y-70990100D01*
X159539000Y-120204500D02*
X159333100Y-120410400D01*
X159227700Y-107389900D02*
X159227700Y-110257200D01*
X153557100Y-101719300D02*
X159227700Y-107389900D01*
%TO.N,/A12*%
X124744600Y-118005500D02*
X124744600Y-124840300D01*
X111524600Y-95750600D02*
X111524600Y-97892000D01*
X114017200Y-92913700D02*
X120938000Y-85992900D01*
X111163800Y-104424700D02*
X123490100Y-116751000D01*
X120938000Y-85992900D02*
X120938000Y-67891100D01*
X168797200Y-116178000D02*
X168345900Y-116629300D01*
X124744600Y-124840300D02*
X119959000Y-129625900D01*
X114017200Y-93258000D02*
X111524600Y-95750600D01*
X114017200Y-93258000D02*
X114017200Y-92913700D01*
X123490100Y-116751000D02*
X124744600Y-118005500D01*
X168797200Y-113256100D02*
X168797200Y-116178000D01*
X111163800Y-103142400D02*
X111163800Y-104424700D01*
X119959000Y-133626000D02*
X119959000Y-129625900D01*
X168375200Y-112834100D02*
X168797200Y-113256100D01*
X167672000Y-111709000D02*
X167672000Y-112834100D01*
X120243000Y-63196000D02*
X120243000Y-67196100D01*
X167672000Y-112834100D02*
X168375200Y-112834100D01*
X120938000Y-67891100D02*
X120243000Y-67196100D01*
%TO.N,/A13*%
X123516600Y-67969700D02*
X123516600Y-87375300D01*
X135946900Y-110435000D02*
X136132000Y-110620100D01*
X123696800Y-114658900D02*
X123696800Y-113663000D01*
X134933600Y-107960800D02*
X134209800Y-107960800D01*
X121751600Y-94282800D02*
X121751600Y-92235300D01*
X131539600Y-105199000D02*
X131178100Y-105199000D01*
X122459000Y-133626000D02*
X122459000Y-129625900D01*
X128439500Y-101823800D02*
X128439500Y-101187300D01*
X132692200Y-106443200D02*
X132692200Y-106351600D01*
X135946900Y-110435000D02*
X135946900Y-108974100D01*
X127847200Y-100595000D02*
X127847200Y-100378400D01*
X125692600Y-116654700D02*
X123696800Y-114658900D01*
X131178100Y-105199000D02*
X129940300Y-103961200D01*
X123516600Y-87375300D02*
X121751600Y-89140300D01*
X129940300Y-103961200D02*
X129940300Y-103324600D01*
X127847200Y-100378400D02*
X121751600Y-94282800D01*
X122459100Y-129440600D02*
X125692600Y-126207100D01*
X128439500Y-101187300D02*
X127847200Y-100595000D01*
X122743000Y-63196000D02*
X122743000Y-67196100D01*
X134209800Y-107960800D02*
X132692200Y-106443200D01*
X125692600Y-126207100D02*
X125692600Y-116654700D01*
X122459000Y-129625900D02*
X122459100Y-129625900D01*
X135946900Y-108974100D02*
X134933600Y-107960800D01*
X122459100Y-129625900D02*
X122459100Y-129440600D01*
X122743000Y-67196100D02*
X123516600Y-67969700D01*
X136132000Y-110620100D02*
X136132000Y-112456000D01*
X121751600Y-89140300D02*
X121751600Y-92235300D01*
X132692200Y-106351600D02*
X131539600Y-105199000D01*
X129940300Y-103324600D02*
X128439500Y-101823800D01*
%TO.N,/A14*%
X135022900Y-105459000D02*
X132711200Y-105459000D01*
X124041500Y-89778600D02*
X123639700Y-90180400D01*
X125243000Y-63196000D02*
X125243000Y-67196100D01*
X126142700Y-116079100D02*
X125486100Y-115422500D01*
X128889600Y-101637300D02*
X128889600Y-100951500D01*
X132711200Y-105459000D02*
X132001100Y-104748900D01*
X123476700Y-129662200D02*
X123476700Y-129072500D01*
X126142700Y-126406500D02*
X126142700Y-116079100D01*
X123476700Y-129072500D02*
X126142700Y-126406500D01*
X131364600Y-104748900D02*
X130390400Y-103774700D01*
X139425600Y-109861700D02*
X135022900Y-105459000D01*
X128889600Y-100951500D02*
X128297300Y-100359200D01*
X128297300Y-100191900D02*
X123639700Y-95534300D01*
X123639700Y-95534300D02*
X123639700Y-90180400D01*
X130390400Y-103774700D02*
X130390400Y-103138100D01*
X124959000Y-133626000D02*
X124959000Y-131144500D01*
X128297300Y-100359200D02*
X128297300Y-100191900D01*
X132001100Y-104748900D02*
X131364600Y-104748900D01*
X124959000Y-131144500D02*
X123476700Y-129662200D01*
X124041500Y-68397600D02*
X124041500Y-89778600D01*
X125243000Y-67196100D02*
X124041500Y-68397600D01*
X130390400Y-103138100D02*
X128889600Y-101637300D01*
X139425600Y-112516400D02*
X139425600Y-109861700D01*
%TO.N,/A0*%
X141112800Y-90231900D02*
X143604400Y-87740300D01*
X148018100Y-90008300D02*
X148018100Y-104218100D01*
X142238000Y-104189000D02*
X142238000Y-103063900D01*
X148018100Y-104218100D02*
X148589700Y-104789700D01*
X141112800Y-90231900D02*
X140961800Y-90231900D01*
X148760300Y-89266100D02*
X148018100Y-90008300D01*
X142592800Y-92759000D02*
X143400300Y-93566500D01*
X148589700Y-109818700D02*
X148589700Y-104789700D01*
X143604400Y-87740300D02*
X143604400Y-86659900D01*
X148147300Y-129254400D02*
X148147300Y-117753400D01*
X148760300Y-81949500D02*
X148760300Y-89266100D01*
X149480800Y-110709800D02*
X148589700Y-109818700D01*
X149480800Y-116419900D02*
X149480800Y-110709800D01*
X147471500Y-67531100D02*
X148574400Y-68634000D01*
X142519300Y-103063900D02*
X142238000Y-103063900D01*
X148574400Y-68634000D02*
X148574400Y-71322800D01*
X141112800Y-90231900D02*
X141112800Y-92003600D01*
X147143100Y-72754100D02*
X147143100Y-80332300D01*
X148147300Y-117753400D02*
X149480800Y-116419900D01*
X147143100Y-80332300D02*
X148760300Y-81949500D01*
X148574400Y-71322800D02*
X147143100Y-72754100D01*
X141868200Y-92759000D02*
X142592800Y-92759000D01*
X141112800Y-92003600D02*
X141868200Y-92759000D01*
X140961800Y-90231900D02*
X140310200Y-89580300D01*
X143400300Y-102182900D02*
X142519300Y-103063900D01*
X143400300Y-93566500D02*
X143400300Y-102182900D01*
%TO.N,/BA0*%
X129692000Y-83635000D02*
X129692000Y-82509900D01*
X167672000Y-114249000D02*
X167672000Y-115374100D01*
X128525800Y-81343700D02*
X128525800Y-75453700D01*
X167672000Y-115374100D02*
X167346900Y-115699200D01*
X129692000Y-82509900D02*
X128525800Y-81343700D01*
X166808400Y-112445300D02*
X166808400Y-113385400D01*
X130243000Y-63196000D02*
X130243000Y-67196100D01*
X166443300Y-92558300D02*
X166529300Y-92644300D01*
X132323200Y-128068514D02*
X132323200Y-117279500D01*
X166808400Y-113385400D02*
X167672000Y-114249000D01*
X130319903Y-130071811D02*
X132323200Y-128068514D01*
X167346900Y-115699200D02*
X167346900Y-117406500D01*
X129959000Y-130071811D02*
X130319903Y-130071811D01*
X130243000Y-73736500D02*
X130243000Y-67196100D01*
X166529300Y-92644300D02*
X166529300Y-112166200D01*
X128525800Y-75453700D02*
X130243000Y-73736500D01*
X129959000Y-133626000D02*
X129959000Y-130071811D01*
X166529300Y-112166200D02*
X166808400Y-112445300D01*
%TO.N,/BA1*%
X129691600Y-111075900D02*
X129691600Y-111712400D01*
X132743000Y-63196000D02*
X132743000Y-67196100D01*
X123826100Y-100278600D02*
X124731600Y-101184100D01*
X132232000Y-83635000D02*
X132232000Y-82509900D01*
X108403800Y-91186500D02*
X106367200Y-91186500D01*
X124731600Y-101184100D02*
X124731600Y-101307300D01*
X131086800Y-68852300D02*
X132743000Y-67196100D01*
X111116300Y-93899000D02*
X108403800Y-91186500D01*
X106367200Y-91186500D02*
X105950300Y-91603400D01*
X135065200Y-117086000D02*
X135065200Y-124678400D01*
X105950300Y-91603400D02*
X105950300Y-95964000D01*
X124731600Y-101307300D02*
X125579800Y-102155500D01*
X125579800Y-102155500D02*
X125579800Y-102783700D01*
X127080600Y-104284500D02*
X127080600Y-104921100D01*
X122472600Y-100278600D02*
X123826100Y-100278600D01*
X112117200Y-93464900D02*
X111683100Y-93899000D01*
X135177100Y-128201800D02*
X132459000Y-130919900D01*
X128852100Y-106692600D02*
X128852100Y-110236400D01*
X125579800Y-102783700D02*
X127080600Y-104284500D01*
X128852100Y-110236400D02*
X129691600Y-111075900D01*
X111683100Y-93899000D02*
X111116300Y-93899000D01*
X131086800Y-81364700D02*
X131086800Y-68852300D01*
X112117200Y-92520300D02*
X112117200Y-93464900D01*
X132232000Y-82509900D02*
X131086800Y-81364700D01*
X113317400Y-103370800D02*
X119380400Y-103370800D01*
X111500000Y-91903100D02*
X112117200Y-92520300D01*
X129691600Y-111712400D02*
X135065200Y-117086000D01*
X135065200Y-124678400D02*
X135177100Y-124790300D01*
X127080600Y-104921100D02*
X128852100Y-106692600D01*
X132459000Y-130919900D02*
X132459000Y-133626000D01*
X135177100Y-124790300D02*
X135177100Y-128201800D01*
X105950300Y-95964000D02*
X107780200Y-97793900D01*
X119380400Y-103370800D02*
X122472600Y-100278600D01*
%TO.N,/BA2*%
X143400100Y-106252600D02*
X142692700Y-105545200D01*
X142692700Y-105545200D02*
X141858000Y-105545200D01*
X134772000Y-83072400D02*
X134772000Y-83635000D01*
X134959000Y-133626000D02*
X134959000Y-129625900D01*
X134959000Y-129625900D02*
X136034100Y-128550800D01*
X136034100Y-125410400D02*
X146330100Y-115114400D01*
X133587500Y-73119600D02*
X133727700Y-72979400D01*
X136034100Y-128550800D02*
X136034100Y-125410400D01*
X143400100Y-110579000D02*
X143400100Y-106252600D01*
X134772000Y-83072400D02*
X134772000Y-82509900D01*
X146330100Y-115114400D02*
X146330100Y-113509000D01*
X146330100Y-113509000D02*
X143400100Y-110579000D01*
X139200900Y-102888100D02*
X139200900Y-93829400D01*
X135243000Y-63196000D02*
X135243000Y-67196100D01*
X132173400Y-86801900D02*
X131842700Y-86801900D01*
X133727700Y-68752800D02*
X135243000Y-67237500D01*
X133587500Y-81325400D02*
X133587500Y-73119600D01*
X133727700Y-72979400D02*
X133727700Y-68752800D01*
X135243000Y-67237500D02*
X135243000Y-67196100D01*
X141858000Y-105545200D02*
X139200900Y-102888100D01*
X134772000Y-82509900D02*
X133587500Y-81325400D01*
X139200900Y-93829400D02*
X132173400Y-86801900D01*
%TO.N,/BA3*%
X145418300Y-82488000D02*
X144408300Y-82488000D01*
X137312000Y-83072400D02*
X137312000Y-82509900D01*
X146059700Y-87154300D02*
X146059700Y-83129400D01*
X136186800Y-81384700D02*
X136186800Y-72329800D01*
X137459000Y-129625900D02*
X137459000Y-124622100D01*
X144408300Y-82488000D02*
X143662000Y-83234300D01*
X137459000Y-124622100D02*
X146780200Y-115300900D01*
X145297000Y-87917000D02*
X146059700Y-87154300D01*
X137312000Y-82509900D02*
X136186800Y-81384700D01*
X146059700Y-83129400D02*
X145418300Y-82488000D01*
X145889100Y-112244900D02*
X145889100Y-106297500D01*
X138437100Y-83916300D02*
X138437100Y-83635000D01*
X143662000Y-83234300D02*
X143662000Y-83980700D01*
X136186800Y-72329800D02*
X137743000Y-70773600D01*
X139283800Y-84763000D02*
X138437100Y-83916300D01*
X137743000Y-70773600D02*
X137743000Y-63196000D01*
X146780200Y-113136000D02*
X145889100Y-112244900D01*
X145297000Y-105705400D02*
X145297000Y-87917000D01*
X137459000Y-133626000D02*
X137459000Y-129625900D01*
X143662000Y-83980700D02*
X142879700Y-84763000D01*
X145889100Y-106297500D02*
X145297000Y-105705400D01*
X146780200Y-115300900D02*
X146780200Y-113136000D01*
X137312000Y-83072400D02*
X137312000Y-83635000D01*
X137312000Y-83635000D02*
X138437100Y-83635000D01*
X142879700Y-84763000D02*
X139283800Y-84763000D01*
%TO.N,/BA4*%
X142752000Y-127720500D02*
X142752000Y-119965700D01*
X111877500Y-94349100D02*
X118041300Y-88185300D01*
X118041300Y-88185300D02*
X118041300Y-85469900D01*
X139959000Y-130513500D02*
X142752000Y-127720500D01*
X146509800Y-87340800D02*
X146509800Y-82942900D01*
X142752000Y-119965700D02*
X147230300Y-115487400D01*
X145604800Y-82037900D02*
X142292900Y-82037900D01*
X147230300Y-115487400D02*
X147230300Y-112949500D01*
X146509800Y-82942900D02*
X145604800Y-82037900D01*
X140243000Y-67597100D02*
X138636800Y-69203300D01*
X147230300Y-112949500D02*
X146339200Y-112058400D01*
X146339200Y-112058400D02*
X146339200Y-106111000D01*
X145747100Y-105518900D02*
X145747100Y-88103500D01*
X146339200Y-106111000D02*
X145747100Y-105518900D01*
X139852000Y-83635000D02*
X140977100Y-83635000D01*
X106701300Y-91911700D02*
X109138700Y-94349100D01*
X142292900Y-82037900D02*
X140977100Y-83353700D01*
X145747100Y-88103500D02*
X146509800Y-87340800D01*
X140243000Y-63196000D02*
X140243000Y-67597100D01*
X109138700Y-94349100D02*
X111877500Y-94349100D01*
X139959000Y-133626000D02*
X139959000Y-130513500D01*
X120175200Y-83336000D02*
X120175200Y-70060900D01*
X140977100Y-83353700D02*
X140977100Y-83635000D01*
X118041300Y-85469900D02*
X120175200Y-83336000D01*
%TO.N,/BA5*%
X147239400Y-111685400D02*
X147239400Y-105738000D01*
X147239400Y-105738000D02*
X146647400Y-105146000D01*
X148130500Y-115860400D02*
X148130500Y-112576500D01*
X137400400Y-73997200D02*
X137400400Y-72767900D01*
X145817100Y-126940600D02*
X145817100Y-118173800D01*
X137400400Y-72767900D02*
X142743000Y-67425300D01*
X147410000Y-82569900D02*
X145977800Y-81137700D01*
X145977800Y-81137700D02*
X139539600Y-81137700D01*
X143131800Y-129625900D02*
X145817100Y-126940600D01*
X148130500Y-112576500D02*
X147239400Y-111685400D01*
X142459000Y-133626000D02*
X142459000Y-129625900D01*
X145817100Y-118173800D02*
X148130500Y-115860400D01*
X146647400Y-89469200D02*
X147410000Y-88706600D01*
X146647400Y-105146000D02*
X146647400Y-89469200D01*
X142459000Y-129625900D02*
X143131800Y-129625900D01*
X142743000Y-67425300D02*
X142743000Y-63196000D01*
X147410000Y-88706600D02*
X147410000Y-82569900D01*
X139539600Y-81137700D02*
X139295300Y-81382000D01*
%TO.N,/BA6*%
X138300600Y-74152400D02*
X137563100Y-74889900D01*
X147689500Y-105551500D02*
X147117900Y-104979900D01*
X146164300Y-80687600D02*
X142564100Y-80687600D01*
X144959000Y-133626000D02*
X144959000Y-129625900D01*
X147860100Y-82383400D02*
X146164300Y-80687600D01*
X147117900Y-104979900D02*
X147117900Y-89635300D01*
X144602700Y-67196100D02*
X138300600Y-73498200D01*
X144959000Y-129625900D02*
X146267200Y-128317700D01*
X147117900Y-89635300D02*
X147860100Y-88893100D01*
X137563100Y-74889900D02*
X137312000Y-74889900D01*
X137312000Y-76015000D02*
X137312000Y-75452400D01*
X137328900Y-75452400D02*
X137312000Y-75452400D01*
X137312000Y-75452400D02*
X137312000Y-74889900D01*
X138300600Y-73498200D02*
X138300600Y-74152400D01*
X145243000Y-67196100D02*
X144602700Y-67196100D01*
X142564100Y-80687600D02*
X137328900Y-75452400D01*
X148580600Y-116046900D02*
X148580600Y-112390000D01*
X147689500Y-111498900D02*
X147689500Y-105551500D01*
X147860100Y-88893100D02*
X147860100Y-82383400D01*
X146267200Y-128317700D02*
X146267200Y-118360300D01*
X145243000Y-63196000D02*
X145243000Y-67196100D01*
X148580600Y-112390000D02*
X147689500Y-111498900D01*
X146267200Y-118360300D02*
X148580600Y-116046900D01*
%TO.N,/BA7*%
X147403300Y-117860800D02*
X149030700Y-116233400D01*
X147403300Y-129570200D02*
X147403300Y-117860800D01*
X143662000Y-77548700D02*
X143662000Y-71552500D01*
X143662000Y-71552500D02*
X142001700Y-71552500D01*
X147568000Y-104793400D02*
X147568000Y-89821800D01*
X149030700Y-116233400D02*
X149030700Y-112203500D01*
X148310200Y-82196900D02*
X143662000Y-77548700D01*
X147743000Y-63196000D02*
X147743000Y-65196000D01*
X147459000Y-133626000D02*
X147459000Y-129625900D01*
X148310200Y-89079600D02*
X148310200Y-82196900D01*
X134772000Y-76015000D02*
X134772000Y-74889900D01*
X134772000Y-72719100D02*
X135762300Y-71728800D01*
X147459000Y-129625900D02*
X147403300Y-129570200D01*
X148139600Y-105365000D02*
X147568000Y-104793400D01*
X149030700Y-112203500D02*
X148139600Y-111312400D01*
X147743000Y-65583800D02*
X147743000Y-65196000D01*
X134772000Y-74889900D02*
X134772000Y-72719100D01*
X148139600Y-111312400D02*
X148139600Y-105365000D01*
X143662000Y-71552500D02*
X143662000Y-69664800D01*
X143662000Y-69664800D02*
X147743000Y-65583800D01*
X147568000Y-89821800D02*
X148310200Y-89079600D01*
%TO.N,/Wire1*%
X126046800Y-101341000D02*
X126046800Y-101226100D01*
X126639100Y-101933300D02*
X126046800Y-101341000D01*
X101268000Y-98798400D02*
X98276800Y-98798400D01*
X103787400Y-101317800D02*
X101268000Y-98798400D01*
X124199100Y-99378400D02*
X121954300Y-99378400D01*
X140232800Y-114349000D02*
X139107700Y-113223900D01*
X129752300Y-106319600D02*
X128139900Y-104707200D01*
X129752300Y-108711700D02*
X129752300Y-106319600D01*
X141112900Y-114349000D02*
X140232800Y-114349000D01*
X139107700Y-113223900D02*
X134264500Y-113223900D01*
X126639100Y-102569800D02*
X126639100Y-101933300D01*
X128139900Y-104707200D02*
X128139900Y-104070600D01*
X120014900Y-101317800D02*
X103787400Y-101317800D01*
X128139900Y-104070600D02*
X126639100Y-102569800D01*
X142238000Y-114349000D02*
X141112900Y-114349000D01*
X98276800Y-98798400D02*
X96336000Y-96857600D01*
X134264500Y-113223900D02*
X129752300Y-108711700D01*
X126046800Y-101226100D02*
X124199100Y-99378400D01*
X121954300Y-99378400D02*
X120014900Y-101317800D01*
%TO.N,/Bottom.CART*%
X150381000Y-116792900D02*
X150381000Y-110336800D01*
X149097700Y-121174100D02*
X149097700Y-118076200D01*
X141112900Y-94590100D02*
X141112900Y-94468000D01*
X149764900Y-101026600D02*
X148918300Y-100180000D01*
X148918300Y-96844100D02*
X149193400Y-96569000D01*
X129456600Y-80600900D02*
X129456600Y-77438300D01*
X142238000Y-96569000D02*
X142238000Y-95443900D01*
X141966700Y-95443900D02*
X141112900Y-94590100D01*
X148918300Y-100180000D02*
X148918300Y-96844100D01*
X149490000Y-109445800D02*
X149490000Y-105551500D01*
X149959000Y-133626000D02*
X150309700Y-133275300D01*
X150309700Y-122386100D02*
X149097700Y-121174100D01*
X150381000Y-110336800D02*
X149490000Y-109445800D01*
X149097700Y-118076200D02*
X150381000Y-116792900D01*
X141112900Y-94468000D02*
X133318900Y-86674000D01*
X130921000Y-84205700D02*
X130921000Y-82065300D01*
X149764900Y-105276600D02*
X149764900Y-101026600D01*
X150309700Y-133275300D02*
X150309700Y-122386100D01*
X130921000Y-82065300D02*
X129456600Y-80600900D01*
X142238000Y-95443900D02*
X141966700Y-95443900D01*
X133318900Y-86603600D02*
X130921000Y-84205700D01*
X133318900Y-86674000D02*
X133318900Y-86603600D01*
X149490000Y-105551500D02*
X149764900Y-105276600D01*
%TO.N,/Wire4*%
X130202400Y-108518500D02*
X130202400Y-106133100D01*
X126496900Y-101154500D02*
X126496900Y-101039600D01*
X119828400Y-100867700D02*
X103973900Y-100867700D01*
X127089200Y-102383300D02*
X127089200Y-101746800D01*
X126496900Y-101039600D02*
X124385600Y-98928300D01*
X121767800Y-98928300D02*
X119828400Y-100867700D01*
X101454500Y-98348300D02*
X98852300Y-98348300D01*
X103973900Y-100867700D02*
X101454500Y-98348300D01*
X134618000Y-111809000D02*
X133492900Y-111809000D01*
X128590000Y-103884100D02*
X127089200Y-102383300D01*
X128590000Y-104520700D02*
X128590000Y-103884100D01*
X130202400Y-106133100D02*
X128590000Y-104520700D01*
X95113600Y-94609600D02*
X95068800Y-94609600D01*
X98852300Y-98348300D02*
X95113600Y-94609600D01*
X127089200Y-101746800D02*
X126496900Y-101154500D01*
X133492900Y-111809000D02*
X130202400Y-108518500D01*
X124385600Y-98928300D02*
X121767800Y-98928300D01*
%TO.N,/Wire3*%
X97104000Y-95782300D02*
X96069100Y-94747400D01*
X129040100Y-104334200D02*
X129040100Y-103697600D01*
X119005300Y-100417600D02*
X104478600Y-100417600D01*
X96069100Y-94747400D02*
X96069100Y-94341300D01*
X130652500Y-105946600D02*
X129040100Y-104334200D01*
X133492900Y-109269000D02*
X130652500Y-106428600D01*
X126947000Y-100853000D02*
X124572200Y-98478200D01*
X134618000Y-109269000D02*
X133492900Y-109269000D01*
X130652500Y-106428600D02*
X130652500Y-105946600D01*
X104478600Y-100417600D02*
X99843300Y-95782300D01*
X126947000Y-100968000D02*
X126947000Y-100853000D01*
X120944700Y-98478200D02*
X119005300Y-100417600D01*
X127539300Y-101560300D02*
X126947000Y-100968000D01*
X99843300Y-95782300D02*
X97104000Y-95782300D01*
X129040100Y-103697600D02*
X127539300Y-102196800D01*
X127539300Y-102196800D02*
X127539300Y-101560300D01*
X124572200Y-98478200D02*
X120944700Y-98478200D01*
%TO.N,/U7.OE*%
X94343700Y-94309200D02*
X94343700Y-95299000D01*
X134336600Y-100523900D02*
X133252700Y-99440000D01*
X95057600Y-93595300D02*
X94343700Y-94309200D01*
X133252700Y-98306500D02*
X132115600Y-97169400D01*
X133252700Y-99440000D02*
X133252700Y-98306500D01*
X134618000Y-101649000D02*
X134618000Y-100523900D01*
X99248000Y-93595300D02*
X95057600Y-93595300D01*
X138446600Y-90310800D02*
X138446600Y-89038200D01*
X112761000Y-99517400D02*
X105170100Y-99517400D01*
X138446600Y-89038200D02*
X141584300Y-85900500D01*
X105170100Y-99517400D02*
X99248000Y-93595300D01*
X144259400Y-85900500D02*
X144534400Y-86175500D01*
X134618000Y-100523900D02*
X134336600Y-100523900D01*
X132115600Y-97169400D02*
X132115600Y-90954100D01*
X141584300Y-85900500D02*
X144259400Y-85900500D01*
X117600000Y-98097100D02*
X114181300Y-98097100D01*
X94343700Y-95299000D02*
X94589900Y-95545200D01*
X176953900Y-90258900D02*
X176698900Y-90003900D01*
X114181300Y-98097100D02*
X112761000Y-99517400D01*
X178079000Y-91384000D02*
X176953900Y-91384000D01*
X176953900Y-91384000D02*
X176953900Y-90258900D01*
%TO.N,/Wire2*%
X136097800Y-92698900D02*
X138300700Y-94901800D01*
X140454100Y-109116600D02*
X142021400Y-110683900D01*
X119211400Y-98246600D02*
X117490500Y-99967500D01*
X99754800Y-95057200D02*
X97404300Y-95057200D01*
X140454100Y-106623600D02*
X140454100Y-109116600D01*
X138300700Y-94901800D02*
X138300700Y-104470200D01*
X117490500Y-99967500D02*
X104665100Y-99967500D01*
X142021400Y-110683900D02*
X142238000Y-110683900D01*
X138300700Y-104470200D02*
X140454100Y-106623600D01*
X142238000Y-111809000D02*
X142238000Y-110683900D01*
X104665100Y-99967500D02*
X99754800Y-95057200D01*
X119211400Y-91058300D02*
X119211400Y-98246600D01*
%TO.N,/Reset*%
X196477600Y-74527500D02*
X186902100Y-64952000D01*
X103708200Y-124368700D02*
X105106800Y-125767300D01*
X110893800Y-122011600D02*
X119660200Y-122011600D01*
X105106800Y-125767300D02*
X107138100Y-125767300D01*
X196477600Y-98709200D02*
X196477600Y-74527500D01*
X107138100Y-125767300D02*
X110893800Y-122011600D01*
X119660200Y-122011600D02*
X122544100Y-124895500D01*
X198772500Y-100279000D02*
X198047400Y-100279000D01*
X186902100Y-64952000D02*
X185467000Y-64952000D01*
X199528200Y-101034700D02*
X198772500Y-100279000D01*
X93998600Y-102557300D02*
X93712100Y-102843800D01*
X93712100Y-111634700D02*
X103708200Y-121630800D01*
X122544100Y-124895500D02*
X122619600Y-124895500D01*
X93712100Y-102843800D02*
X93712100Y-111634700D01*
X182987900Y-125734700D02*
X196674100Y-125734700D01*
X199528200Y-122880600D02*
X199528200Y-101034700D01*
X198047400Y-100279000D02*
X196477600Y-98709200D01*
X196674100Y-125734700D02*
X199528200Y-122880600D01*
X103708200Y-121630800D02*
X103708200Y-124368700D01*
X185467000Y-64952000D02*
X181576100Y-68842900D01*
%TO.N,/SYS_CLK*%
X151601100Y-107810600D02*
X154916300Y-107810600D01*
X168149600Y-87434200D02*
X167436600Y-87434200D01*
X166079200Y-98692000D02*
X166079200Y-112723800D01*
X169959000Y-126037700D02*
X166254200Y-122332900D01*
X166254200Y-112916600D02*
X166070300Y-112732700D01*
X166079200Y-112723800D02*
X166070300Y-112732700D01*
X169959000Y-133626000D02*
X169959000Y-129625900D01*
X167436600Y-87434200D02*
X165712600Y-89158200D01*
X101452400Y-100878000D02*
X102899000Y-102324600D01*
X158048800Y-108754600D02*
X158048800Y-112732700D01*
X155260100Y-107466800D02*
X156761000Y-107466800D01*
X116906000Y-107992900D02*
X117578600Y-107992900D01*
X154916300Y-107810600D02*
X155260100Y-107466800D01*
X165712600Y-89158200D02*
X165712600Y-98325400D01*
X102899000Y-102324600D02*
X111448300Y-102324600D01*
X111889000Y-102975900D02*
X116906000Y-107992900D01*
X170243000Y-67780900D02*
X169258200Y-68765700D01*
X169258200Y-86325600D02*
X168149600Y-87434200D01*
X169258200Y-68765700D02*
X169258200Y-86325600D01*
X170243000Y-67196100D02*
X170243000Y-67780900D01*
X111889000Y-102765300D02*
X111889000Y-102975900D01*
X156761000Y-107466800D02*
X158048800Y-108754600D01*
X170243000Y-63196000D02*
X170243000Y-67196100D01*
X165712600Y-98325400D02*
X166079200Y-98692000D01*
X111448300Y-102324600D02*
X111889000Y-102765300D01*
X151130400Y-107339900D02*
X151601100Y-107810600D01*
X169959000Y-129625900D02*
X169959000Y-126037700D01*
X166254200Y-122332900D02*
X166254200Y-112916600D01*
%TO.N,/U5.D0*%
X198403000Y-116789000D02*
X197277900Y-116789000D01*
X182172200Y-114869900D02*
X182172200Y-114720900D01*
X179437600Y-91117900D02*
X179437600Y-105330100D01*
X179734200Y-105626700D02*
X179437600Y-105330100D01*
X179734200Y-112431900D02*
X179734200Y-105626700D01*
X185219700Y-117917400D02*
X182172200Y-114869900D01*
X197277900Y-116789000D02*
X196149500Y-117917400D01*
X174169800Y-104775200D02*
X174169800Y-116493900D01*
X181747500Y-114296200D02*
X181598500Y-114296200D01*
X94459100Y-105958000D02*
X94459100Y-111574700D01*
X178079000Y-89969100D02*
X178288800Y-89969100D01*
X94459100Y-111574700D02*
X104158300Y-121273900D01*
X174169800Y-116493900D02*
X174448100Y-116772200D01*
X111383900Y-120885000D02*
X111383900Y-118956500D01*
X196149500Y-117917400D02*
X185219700Y-117917400D01*
X178288800Y-89969100D02*
X179437600Y-91117900D01*
X174979300Y-103965700D02*
X174169800Y-104775200D01*
X104158300Y-124182200D02*
X105293300Y-125317200D01*
X106951700Y-125317200D02*
X111383900Y-120885000D01*
X105293300Y-125317200D02*
X106951700Y-125317200D01*
X182172200Y-114720900D02*
X181747500Y-114296200D01*
X181598500Y-114296200D02*
X179734200Y-112431900D01*
X178079000Y-88844000D02*
X178079000Y-89969100D01*
X104158300Y-121273900D02*
X104158300Y-124182200D01*
%TO.N,/U5.D1*%
X101979600Y-100146800D02*
X103600700Y-101767900D01*
X161928300Y-104732300D02*
X162378400Y-105182400D01*
X162988500Y-86822100D02*
X162988500Y-98949800D01*
X162378400Y-99559900D02*
X162378400Y-103308700D01*
X162909100Y-123167500D02*
X164018500Y-124276900D01*
X127689600Y-104256900D02*
X127689600Y-104893500D01*
X124012500Y-99828500D02*
X125596700Y-101412700D01*
X97062500Y-104208400D02*
X101124100Y-100146800D01*
X135790300Y-117174600D02*
X135790300Y-124378100D01*
X162378400Y-105182400D02*
X162378400Y-108951600D01*
X130300600Y-111684900D02*
X135790300Y-117174600D01*
X126188700Y-102756000D02*
X127689600Y-104256900D01*
X122286100Y-99828500D02*
X124012500Y-99828500D01*
X162988500Y-98949800D02*
X162378400Y-99559900D01*
X162909100Y-109482300D02*
X162909100Y-123167500D01*
X129302200Y-109217700D02*
X130300600Y-110216100D01*
X161928300Y-103758800D02*
X161928300Y-104732300D01*
X120346700Y-101767900D02*
X122286100Y-99828500D01*
X101124100Y-100146800D02*
X101979600Y-100146800D01*
X126188700Y-102119500D02*
X126188700Y-102756000D01*
X130300600Y-110216100D02*
X130300600Y-111684900D01*
X103600700Y-101767900D02*
X120346700Y-101767900D01*
X127689600Y-104893500D02*
X129302200Y-106506100D01*
X97062500Y-106834200D02*
X97062500Y-104208400D01*
X125596700Y-101412700D02*
X125596700Y-101527500D01*
X125596700Y-101527500D02*
X126188700Y-102119500D01*
X162378400Y-103308700D02*
X161928300Y-103758800D01*
X162378400Y-108951600D02*
X162909100Y-109482300D01*
X129302200Y-106506100D02*
X129302200Y-109217700D01*
X163859400Y-85951200D02*
X162988500Y-86822100D01*
%TO.N,/U5.D2*%
X178079000Y-78684000D02*
X179204100Y-78684000D01*
X184559200Y-106098700D02*
X185443800Y-105214100D01*
X186824100Y-99279800D02*
X188220100Y-97883800D01*
X189120900Y-85034000D02*
X186580900Y-82494000D01*
X95634300Y-103167600D02*
X95634300Y-108498000D01*
X93402900Y-93921500D02*
X93402900Y-100936200D01*
X185241300Y-107801500D02*
X184559200Y-107119400D01*
X179758300Y-78684000D02*
X179204100Y-78684000D01*
X185443800Y-105214100D02*
X186165000Y-105214100D01*
X135637900Y-70225200D02*
X135637900Y-69928500D01*
X107531000Y-98617200D02*
X101607300Y-92693500D01*
X191132300Y-85034000D02*
X189120900Y-85034000D01*
X198403000Y-106629000D02*
X197277900Y-106629000D01*
X188220100Y-97883800D02*
X188465800Y-97883800D01*
X186580900Y-82494000D02*
X183568300Y-82494000D01*
X111860400Y-98617200D02*
X107531000Y-98617200D01*
X117457700Y-93019900D02*
X111860400Y-98617200D01*
X197277900Y-106629000D02*
X196105400Y-107801500D01*
X192369400Y-93980200D02*
X192369400Y-86271100D01*
X186165000Y-105214100D02*
X186824100Y-104555000D01*
X183568300Y-82494000D02*
X179758300Y-78684000D01*
X121852500Y-85715000D02*
X117457700Y-90109800D01*
X188465800Y-97883800D02*
X192369400Y-93980200D01*
X186824100Y-104555000D02*
X186824100Y-99279800D01*
X196105400Y-107801500D02*
X185241300Y-107801500D01*
X184559200Y-107119400D02*
X184559200Y-106098700D01*
X94630900Y-92693500D02*
X93402900Y-93921500D01*
X101607300Y-92693500D02*
X94630900Y-92693500D01*
X192369400Y-86271100D02*
X191132300Y-85034000D01*
X134513300Y-71349800D02*
X135637900Y-70225200D01*
X117457700Y-90109800D02*
X117457700Y-93019900D01*
X121852500Y-73673900D02*
X121852500Y-85715000D01*
X93402900Y-100936200D02*
X95634300Y-103167600D01*
%TO.N,/U5.D3*%
X148059700Y-77817300D02*
X149304600Y-76572400D01*
X198403000Y-104089000D02*
X198403000Y-102963900D01*
X149789500Y-89898900D02*
X149789500Y-81541500D01*
X149304600Y-76572400D02*
X149950700Y-76572400D01*
X194593000Y-99387100D02*
X198169800Y-102963900D01*
X120952800Y-87600300D02*
X117907900Y-90645200D01*
X191252200Y-69938800D02*
X194593000Y-73279600D01*
X188421600Y-69938800D02*
X191252200Y-69938800D01*
X198169800Y-102963900D02*
X198403000Y-102963900D01*
X96337400Y-107758400D02*
X96577800Y-107998800D01*
X178079000Y-73604000D02*
X179204100Y-73604000D01*
X105356600Y-99067300D02*
X99432900Y-93143600D01*
X148059700Y-79811700D02*
X148059700Y-77817300D01*
X117907900Y-90645200D02*
X117907900Y-93249000D01*
X149789500Y-81541500D02*
X148059700Y-79811700D01*
X185881500Y-72478900D02*
X188421600Y-69938800D01*
X93853000Y-94108000D02*
X93853000Y-100749700D01*
X99432900Y-93143600D02*
X94817400Y-93143600D01*
X180329200Y-72478900D02*
X185881500Y-72478900D01*
X112089600Y-99067300D02*
X105356600Y-99067300D01*
X96337400Y-103234100D02*
X96337400Y-107758400D01*
X179204100Y-73604000D02*
X180329200Y-72478900D01*
X120992600Y-87600300D02*
X120952800Y-87600300D01*
X93853000Y-100749700D02*
X96337400Y-103234100D01*
X117907900Y-93249000D02*
X112089600Y-99067300D01*
X194593000Y-73279600D02*
X194593000Y-99387100D01*
X94817400Y-93143600D02*
X93853000Y-94108000D01*
%TO.N,/U5.D4*%
X190783000Y-104089000D02*
X190783000Y-102963900D01*
X190501700Y-102963900D02*
X189610200Y-102072400D01*
X193269600Y-94353100D02*
X193269600Y-77011700D01*
X193269600Y-77011700D02*
X191131900Y-74874000D01*
X191131900Y-74874000D02*
X188094100Y-74874000D01*
X190783000Y-102963900D02*
X190501700Y-102963900D01*
X124106300Y-124157500D02*
X124019500Y-124244300D01*
X189610200Y-98012500D02*
X193269600Y-94353100D01*
X124106300Y-119396200D02*
X124106300Y-124157500D01*
X114301400Y-109591300D02*
X124106300Y-119396200D01*
X96135500Y-111305700D02*
X97849900Y-109591300D01*
X189610200Y-102072400D02*
X189610200Y-98012500D01*
X185699000Y-73604000D02*
X186824100Y-73604000D01*
X188094100Y-74874000D02*
X186824100Y-73604000D01*
X97849900Y-109591300D02*
X114301400Y-109591300D01*
%TO.N,/U5.D5*%
X105479800Y-124867100D02*
X106765200Y-124867100D01*
X106765200Y-124867100D02*
X110653600Y-120978700D01*
X104608400Y-123995700D02*
X105479800Y-124867100D01*
X182308500Y-82259700D02*
X182308500Y-107666000D01*
X104608400Y-120642700D02*
X104608400Y-123995700D01*
X179502700Y-79453900D02*
X182308500Y-82259700D01*
X174936300Y-107942900D02*
X174936300Y-115334200D01*
X96317500Y-112351800D02*
X104608400Y-120642700D01*
X182308500Y-107666000D02*
X182031600Y-107942900D01*
X174936300Y-115334200D02*
X176061400Y-116459300D01*
X110653600Y-120978700D02*
X110653600Y-120176700D01*
%TO.N,/U5.D6*%
X122957000Y-125620600D02*
X123363800Y-125213800D01*
X185699000Y-83764000D02*
X185699000Y-84889100D01*
X123287500Y-124537700D02*
X123287500Y-123561800D01*
X182758700Y-114042900D02*
X184184500Y-115468700D01*
X122319300Y-125620600D02*
X122957000Y-125620600D01*
X104920300Y-126217400D02*
X107324600Y-126217400D01*
X107324600Y-126217400D02*
X111080200Y-122461800D01*
X96808000Y-115903600D02*
X96808000Y-118105100D01*
X123363800Y-125213800D02*
X123363800Y-124614000D01*
X123363800Y-124614000D02*
X123287500Y-124537700D01*
X111080200Y-122461800D02*
X119160500Y-122461800D01*
X182758700Y-87548100D02*
X182758700Y-114042900D01*
X185699000Y-84889100D02*
X185417700Y-84889100D01*
X119160500Y-122461800D02*
X122319300Y-125620600D01*
X185417700Y-84889100D02*
X182758700Y-87548100D01*
X96808000Y-118105100D02*
X104920300Y-126217400D01*
X123287500Y-123561800D02*
X123370200Y-123479100D01*
%TO.N,/U5.D7*%
X190783000Y-116789000D02*
X189657900Y-116789000D01*
X112585100Y-119104600D02*
X112585100Y-119416700D01*
X189657900Y-116555900D02*
X186081000Y-112979000D01*
X105058500Y-119669100D02*
X105058500Y-123809200D01*
X111689300Y-118208800D02*
X112585100Y-119104600D01*
X105058500Y-123809200D02*
X105666300Y-124417000D01*
X105666300Y-124417000D02*
X106578700Y-124417000D01*
X184963100Y-112584000D02*
X184177200Y-113369900D01*
X107714000Y-123281700D02*
X107714000Y-121535900D01*
X183658900Y-91727900D02*
X183658900Y-111279800D01*
X185699000Y-89969100D02*
X185417700Y-89969100D01*
X185358100Y-112979000D02*
X184963100Y-112584000D01*
X185417700Y-89969100D02*
X183658900Y-91727900D01*
X97786500Y-112397100D02*
X105058500Y-119669100D01*
X189657900Y-116789000D02*
X189657900Y-116555900D01*
X186081000Y-112979000D02*
X185358100Y-112979000D01*
X106578700Y-124417000D02*
X107714000Y-123281700D01*
X111041100Y-118208800D02*
X111689300Y-118208800D01*
X183658900Y-111279800D02*
X184963100Y-112584000D01*
X185699000Y-88844000D02*
X185699000Y-89969100D01*
X107714000Y-121535900D02*
X111041100Y-118208800D01*
%TO.N,/IRQ*%
X148468200Y-100366500D02*
X148468200Y-90194800D01*
X149314800Y-105090100D02*
X149314800Y-101213100D01*
X149039800Y-105365100D02*
X149314800Y-105090100D01*
X149252200Y-81679200D02*
X147609600Y-80036600D01*
X147609600Y-77313300D02*
X149955600Y-74967300D01*
X149252200Y-89410800D02*
X149252200Y-81679200D01*
X148647600Y-117889700D02*
X149930900Y-116606400D01*
X147609600Y-80036600D02*
X147609600Y-77313300D01*
X149314800Y-101213100D02*
X148468200Y-100366500D01*
X148468200Y-90194800D02*
X149252200Y-89410800D01*
X149039800Y-109632200D02*
X149039800Y-105365100D01*
X149930900Y-116606400D02*
X149930900Y-110523300D01*
X148647600Y-128482400D02*
X148647600Y-117889700D01*
X149955600Y-74967300D02*
X149955600Y-68456400D01*
X149930900Y-110523300D02*
X149039800Y-109632200D01*
X149501100Y-129335900D02*
X148647600Y-128482400D01*
%TO.N,/Read*%
X155064900Y-97361600D02*
X157644200Y-94782300D01*
X155064900Y-100134100D02*
X155064900Y-97361600D01*
X159677800Y-107203400D02*
X159677800Y-110070700D01*
X157644200Y-71946700D02*
X160645900Y-68945000D01*
X160058300Y-110451200D02*
X160058300Y-122642900D01*
X159677800Y-110070700D02*
X160058300Y-110451200D01*
X149193400Y-94330000D02*
X149918500Y-95055100D01*
X160058300Y-122642900D02*
X159508200Y-123193000D01*
X149918500Y-98734000D02*
X149643500Y-99009000D01*
X155064900Y-100134100D02*
X152432000Y-100134100D01*
X159869100Y-124251100D02*
X159869100Y-128243500D01*
X159869100Y-128243500D02*
X161214100Y-129588500D01*
X155064900Y-102590500D02*
X159677800Y-107203400D01*
X159508200Y-123193000D02*
X159508200Y-123890200D01*
X152432000Y-99009000D02*
X152432000Y-100134100D01*
X155064900Y-100134100D02*
X155064900Y-102590500D01*
X159508200Y-123890200D02*
X159869100Y-124251100D01*
X157644200Y-94782300D02*
X157644200Y-71946700D01*
X149918500Y-95055100D02*
X149918500Y-98734000D01*
%TO.N,/CIC_1*%
X161928300Y-99055300D02*
X161928300Y-103122200D01*
X162459000Y-109668900D02*
X162459000Y-127485600D01*
X163698800Y-69075700D02*
X163268700Y-69505800D01*
X161928300Y-103122200D02*
X161478200Y-103572300D01*
X162459000Y-127485600D02*
X164210500Y-129237100D01*
X162538400Y-86246800D02*
X162538400Y-98445200D01*
X161478200Y-103572300D02*
X161478200Y-104918900D01*
X161928300Y-109138200D02*
X162459000Y-109668900D01*
X161478200Y-104918900D02*
X161928300Y-105369000D01*
X163268700Y-85516500D02*
X162538400Y-86246800D01*
X161928300Y-105369000D02*
X161928300Y-109138200D01*
X163268700Y-69505800D02*
X163268700Y-85516500D01*
X162538400Y-98445200D02*
X161928300Y-99055300D01*
%TO.N,/CIC_7*%
X164788900Y-98674900D02*
X165179000Y-99065000D01*
X164785200Y-121968200D02*
X167214500Y-124397500D01*
X164788900Y-88808600D02*
X164788900Y-98674900D01*
X164785200Y-102451900D02*
X164785200Y-121968200D01*
X165179000Y-102058100D02*
X164785200Y-102451900D01*
X166381200Y-80263700D02*
X166381200Y-87216300D01*
X168560600Y-78084300D02*
X166381200Y-80263700D01*
X168560600Y-68364400D02*
X168560600Y-78084300D01*
X165179000Y-99065000D02*
X165179000Y-102058100D01*
X167214500Y-124397500D02*
X167214500Y-128766300D01*
X166381200Y-87216300D02*
X164788900Y-88808600D01*
X169421400Y-67503600D02*
X168560600Y-68364400D01*
%TO.N,/CIC_6*%
X164728900Y-99251500D02*
X164728900Y-101871600D01*
X167935300Y-68867100D02*
X165901700Y-70900700D01*
X165901700Y-87059200D02*
X164338800Y-88622100D01*
X164335100Y-102265400D02*
X164335100Y-122154700D01*
X164335100Y-122154700D02*
X165783200Y-123602800D01*
X165901700Y-70900700D02*
X165901700Y-87059200D01*
X165783200Y-123602800D02*
X165783200Y-128360400D01*
X164728900Y-101871600D02*
X164335100Y-102265400D01*
X164338800Y-88622100D02*
X164338800Y-98861400D01*
X164338800Y-98861400D02*
X164728900Y-99251500D01*
X167048700Y-129625900D02*
X167459000Y-129625900D01*
X167935300Y-63388300D02*
X167935300Y-68867100D01*
X167743000Y-63196000D02*
X167935300Y-63388300D01*
X165783200Y-128360400D02*
X167048700Y-129625900D01*
X167459000Y-133626000D02*
X167459000Y-129625900D01*
%TO.N,/CIC_2*%
X163885000Y-102078900D02*
X163885000Y-122341200D01*
X163885000Y-122341200D02*
X164959000Y-123415200D01*
X163888700Y-88435600D02*
X163888700Y-99047900D01*
X165243000Y-63196000D02*
X165364700Y-63317700D01*
X163888700Y-99047900D02*
X164278800Y-99438000D01*
X164278800Y-99438000D02*
X164278800Y-101685100D01*
X164278800Y-101685100D02*
X163885000Y-102078900D01*
X164959000Y-123415200D02*
X164959000Y-129625900D01*
X165364700Y-86959600D02*
X163888700Y-88435600D01*
X165364700Y-63317700D02*
X165364700Y-86959600D01*
X164959000Y-133626000D02*
X164959000Y-129625900D01*
%TO.N,/Write*%
X161478200Y-102935700D02*
X161028100Y-103385800D01*
X162018600Y-97882800D02*
X162018600Y-82991400D01*
X162459000Y-133626000D02*
X162459000Y-129625900D01*
X161478200Y-98423200D02*
X161478200Y-102935700D01*
X161028100Y-103385800D02*
X161028100Y-105105400D01*
X161644000Y-98257400D02*
X162018600Y-97882800D01*
X161478200Y-105555500D02*
X161478200Y-109324700D01*
X161478200Y-109324700D02*
X162008900Y-109855400D01*
X162008900Y-109855400D02*
X162008900Y-129175800D01*
X162767200Y-63220200D02*
X162743000Y-63196000D01*
X161028100Y-105105400D02*
X161478200Y-105555500D01*
X162008900Y-129175800D02*
X162459000Y-129625900D01*
X161644000Y-98257400D02*
X161478200Y-98423200D01*
X162767200Y-82242800D02*
X162767200Y-63220200D01*
X162018600Y-82991400D02*
X162767200Y-82242800D01*
%TO.N,/A15*%
X126070200Y-92351200D02*
X132770100Y-99051100D01*
X123360600Y-103276400D02*
X124845700Y-103276400D01*
X136771800Y-101148800D02*
X135142400Y-102778200D01*
X132770100Y-99051100D02*
X132770100Y-102778200D01*
X127493000Y-129591900D02*
X127493000Y-115130800D01*
X122602800Y-110240600D02*
X122602800Y-104034200D01*
X132770100Y-102778200D02*
X132770100Y-103108900D01*
X131273600Y-104021300D02*
X130840500Y-103588200D01*
X131857700Y-104021300D02*
X131273600Y-104021300D01*
X130840500Y-103588200D02*
X130840500Y-102530400D01*
X136771800Y-99109000D02*
X136771800Y-101148800D01*
X127459000Y-133626000D02*
X127459000Y-129625900D01*
X127743000Y-68962300D02*
X126070200Y-70635100D01*
X126070200Y-70635100D02*
X126070200Y-92351200D01*
X127493000Y-115130800D02*
X122602800Y-110240600D01*
X130840500Y-102530400D02*
X129614800Y-101304700D01*
X135142400Y-102778200D02*
X132770100Y-102778200D01*
X124845700Y-103276400D02*
X124916300Y-103205800D01*
X127743000Y-63196000D02*
X127743000Y-67196100D01*
X132770100Y-103108900D02*
X131857700Y-104021300D01*
X127459000Y-129625900D02*
X127493000Y-129591900D01*
X127743000Y-67196100D02*
X127743000Y-68962300D01*
X122602800Y-104034200D02*
X123360600Y-103276400D01*
%TO.N,/Top.CART*%
X150516800Y-77031800D02*
X150695900Y-76852700D01*
X150516800Y-87733400D02*
X150516800Y-77031800D01*
X139538900Y-91846600D02*
X139538900Y-88971300D01*
X139930300Y-92238000D02*
X139538900Y-91846600D01*
X150695900Y-68096500D02*
X150243000Y-67643600D01*
X150695900Y-76852700D02*
X150695900Y-68096500D01*
X150243000Y-67643600D02*
X150243000Y-63196000D01*
X139538900Y-88971300D02*
X141728700Y-86781500D01*
%TO.N,/LS30.OUT*%
X132300400Y-87565500D02*
X130847400Y-87565500D01*
X142238000Y-108143900D02*
X141974400Y-108143900D01*
X138750800Y-104283700D02*
X138750800Y-94015900D01*
X138750800Y-94015900D02*
X132300400Y-87565500D01*
X141037900Y-106570800D02*
X138750800Y-104283700D01*
X141974400Y-108143900D02*
X141037900Y-107207400D01*
X127560500Y-84278600D02*
X127560500Y-74756900D01*
X142238000Y-109269000D02*
X142238000Y-108143900D01*
X141037900Y-107207400D02*
X141037900Y-106570800D01*
X130847400Y-87565500D02*
X127560500Y-84278600D01*
%TO.N,/U6.OE*%
X134618000Y-96569000D02*
X135743100Y-96569000D01*
X137776600Y-98602500D02*
X137776600Y-104971500D01*
X182033900Y-119329000D02*
X179204100Y-119329000D01*
X162828500Y-100247000D02*
X162828500Y-103495200D01*
X173708300Y-117342700D02*
X173708300Y-109216800D01*
X135743100Y-96569000D02*
X137776600Y-98602500D01*
X137776600Y-104971500D02*
X138630300Y-105825200D01*
X178079000Y-119329000D02*
X179204100Y-119329000D01*
X162828500Y-103495200D02*
X162378400Y-103945300D01*
X162378400Y-104545800D02*
X163142200Y-105309600D01*
X184573900Y-121869000D02*
X182033900Y-119329000D01*
X163142200Y-105309600D02*
X163142200Y-108612700D01*
X162378400Y-103945300D02*
X162378400Y-104545800D01*
X163103500Y-99972000D02*
X162828500Y-100247000D01*
X176039300Y-119673700D02*
X173708300Y-117342700D01*
X173708300Y-109216800D02*
X172532900Y-108041400D01*
X185699000Y-121869000D02*
X184573900Y-121869000D01*
%TO.N,/U8.E*%
X134384800Y-97983900D02*
X132858200Y-96457300D01*
X132858200Y-96457300D02*
X132858200Y-89225200D01*
X134618000Y-99109000D02*
X134618000Y-97983900D01*
X132858200Y-89225200D02*
X132335300Y-88702300D01*
X134618000Y-97983900D02*
X134384800Y-97983900D01*
%TO.N,/U5.E*%
X141779300Y-112947500D02*
X144720400Y-112947500D01*
X140336800Y-109907800D02*
X140336800Y-111505000D01*
X137581400Y-123202800D02*
X136975400Y-123202800D01*
X144720400Y-112947500D02*
X145880000Y-114107100D01*
X145880000Y-114107100D02*
X145880000Y-114904200D01*
X140336800Y-111505000D02*
X141779300Y-112947500D01*
X134618000Y-104189000D02*
X140336800Y-109907800D01*
X145880000Y-114904200D02*
X137581400Y-123202800D01*
%TO.N,/U8{slash}U5.CP*%
X193781600Y-94885300D02*
X190783000Y-97883900D01*
X134618000Y-106729000D02*
X135254900Y-106729000D01*
X190783000Y-71064000D02*
X190783000Y-72189100D01*
X135254900Y-106729000D02*
X137188200Y-108662300D01*
X190783000Y-99009000D02*
X190783000Y-97883900D01*
X190783000Y-72189100D02*
X191064300Y-72189100D01*
X193781600Y-74906400D02*
X193781600Y-94885300D01*
X191064300Y-72189100D02*
X193781600Y-74906400D01*
%TO.N,Net-(U5-Pad2)*%
X198403000Y-119329000D02*
X197277900Y-119329000D01*
X196148400Y-120458500D02*
X189085200Y-120458500D01*
X185699000Y-119329000D02*
X186824100Y-119329000D01*
X189085200Y-120458500D02*
X187955700Y-119329000D01*
X197277900Y-119329000D02*
X196148400Y-120458500D01*
X187955700Y-119329000D02*
X186824100Y-119329000D01*
%TO.N,Net-(U5-Pad6)*%
X198403000Y-109169000D02*
X197277900Y-109169000D01*
X186824100Y-109169000D02*
X187973600Y-110318500D01*
X185699000Y-109169000D02*
X186824100Y-109169000D01*
X196128400Y-110318500D02*
X197277900Y-109169000D01*
X187973600Y-110318500D02*
X196128400Y-110318500D01*
%TO.N,Net-(U5-Pad19)*%
X187484000Y-120454200D02*
X187769700Y-120168500D01*
X181447100Y-116673700D02*
X185227600Y-120454200D01*
X185227600Y-120454200D02*
X187484000Y-120454200D01*
X181447100Y-115021300D02*
X181447100Y-116673700D01*
%TO.N,Net-(U8-Pad15)*%
X189657900Y-81224000D02*
X188532800Y-80098900D01*
X188532800Y-80098900D02*
X183159000Y-80098900D01*
X190783000Y-81224000D02*
X189657900Y-81224000D01*
X183159000Y-80098900D02*
X179204100Y-76144000D01*
X178079000Y-76144000D02*
X179204100Y-76144000D01*
%TD*%
M02*
